<svg xmlns="http://www.w3.org/2000/svg" viewBox="0 0 840 420" width="840" height="420" font-family="IBM Plex Sans, Segoe UI, system-ui, sans-serif" role="img" aria-label="Pseudo-vertical diamond Schottky diode">
<rect width="840" height="420" rx="14" fill="#10141a"/>
<text x="24" y="36" fill="#e8ecf1" font-size="19" font-weight="600">Pseudo-vertical diamond Schottky diode</text>
<text x="24" y="58" fill="#8a94a3" font-size="12.5">Lightly doped drift layer on a heavily doped layer; blocks kilovolts in principle at µm thicknesses.</text>
<rect x="30.0" y="330.0" width="470.0" height="64.0" rx="0" fill="#dfe8f3" fill-opacity="1.0"/>
<rect x="30.0" y="280.0" width="470.0" height="50.0" rx="0" fill="#f29fc8" fill-opacity="1.0"/>
<rect x="140.0" y="180.0" width="250.0" height="100.0" rx="0" fill="#e6dcef" fill-opacity="1.0"/>
<rect x="180.0" y="160.0" width="170.0" height="20.0" rx="0" fill="#e2b650" fill-opacity="1.0"/>
<rect x="50.0" y="260.0" width="70.0" height="20.0" rx="0" fill="#e8c45c" fill-opacity="1.0"/>
<rect x="410.0" y="260.0" width="70.0" height="20.0" rx="0" fill="#e8c45c" fill-opacity="1.0"/>
<line x1="265.0" y1="190.0" x2="265.0" y2="270.0" stroke="#e8ecf1" stroke-width="2" stroke-linecap="round" stroke-dasharray="4 4"/>
<polyline points="265.0,170.0 522.0,170.0 540.0,170.0" fill="none" stroke="#8a94a3" stroke-width="1"/>
<circle cx="265.0" cy="170.0" r="2.6" fill="#e8ecf1" stroke="#10141a" stroke-width="1.5"/>
<text x="548" y="174.0" fill="#e8ecf1" font-size="12.5">Schottky metal (Mo, Pt, Zr)</text>
<polyline points="265.0,230.0 522.0,230.0 540.0,230.0" fill="none" stroke="#8a94a3" stroke-width="1"/>
<circle cx="265.0" cy="230.0" r="2.6" fill="#e8ecf1" stroke="#10141a" stroke-width="1.5"/>
<text x="548" y="234.0" fill="#e8ecf1" font-size="12.5">p⁻ drift layer (~1e15–16 cm⁻³)</text>
<polyline points="85.0,270.0 522.0,270.0 540.0,270.0" fill="none" stroke="#8a94a3" stroke-width="1"/>
<circle cx="85.0" cy="270.0" r="2.6" fill="#e8ecf1" stroke="#10141a" stroke-width="1.5"/>
<text x="548" y="274.0" fill="#e8ecf1" font-size="12.5">Ohmic contact (Ti/Pt/Au)</text>
<polyline points="265.0,305.0 522.0,305.0 540.0,305.0" fill="none" stroke="#8a94a3" stroke-width="1"/>
<circle cx="265.0" cy="305.0" r="2.6" fill="#e8ecf1" stroke="#10141a" stroke-width="1.5"/>
<text x="548" y="309.0" fill="#e8ecf1" font-size="12.5">p⁺ boron layer (~1e20 cm⁻³)</text>
<polyline points="265.0,362.0 522.0,362.0 540.0,362.0" fill="none" stroke="#8a94a3" stroke-width="1"/>
<circle cx="265.0" cy="362.0" r="2.6" fill="#e8ecf1" stroke="#10141a" stroke-width="1.5"/>
<text x="548" y="366.0" fill="#e8ecf1" font-size="12.5">Insulating diamond substrate</text>
</svg>