<?xml version="1.0" encoding="utf-8" standalone="no"?>
<!DOCTYPE svg PUBLIC "-//W3C//DTD SVG 1.1//EN"
  "http://www.w3.org/Graphics/SVG/1.1/DTD/svg11.dtd">
<svg xmlns:xlink="http://www.w3.org/1999/xlink" width="706.232031pt" height="411.958062pt" viewBox="0 0 706.232031 411.958062" xmlns="http://www.w3.org/2000/svg" version="1.1">
 <metadata>
  <rdf:RDF xmlns:dc="http://purl.org/dc/elements/1.1/" xmlns:cc="http://creativecommons.org/ns#" xmlns:rdf="http://www.w3.org/1999/02/22-rdf-syntax-ns#">
   <cc:Work>
    <dc:type rdf:resource="http://purl.org/dc/dcmitype/StillImage"/>
    <dc:format>image/svg+xml</dc:format>
    <dc:creator>
     <cc:Agent>
      <dc:title>Matplotlib v3.10.9, https://matplotlib.org/</dc:title>
     </cc:Agent>
    </dc:creator>
   </cc:Work>
  </rdf:RDF>
 </metadata>
 <defs>
  <style type="text/css">*{stroke-linejoin: round; stroke-linecap: butt}</style>
 </defs>
 <g id="figure_1">
  <g id="patch_1">
   <path d="M 0 411.958062 
L 706.232031 411.958062 
L 706.232031 0 
L 0 0 
z
" style="fill: #10141a"/>
  </g>
  <g id="axes_1">
   <g id="patch_2">
    <path d="M 55.966953 362.341969 
L 613.966953 362.341969 
L 613.966953 51.877969 
L 55.966953 51.877969 
z
" style="fill: #10141a"/>
   </g>
   <g id="matplotlib.axis_1">
    <g id="xtick_1">
     <g id="line2d_1">
      <path d="M 81.330589 362.341969 
L 81.330589 51.877969 
" clip-path="url(#p48e287c952)" style="fill: none; stroke: #232a34; stroke-width: 0.8; stroke-linecap: round"/>
     </g>
     <g id="line2d_2">
      <defs>
       <path id="m82ede6b9fe" d="M 0 0 
L 0 3.5 
" style="stroke: #8a94a3; stroke-width: 0.8"/>
      </defs>
      <g>
       <use xlink:href="#m82ede6b9fe" x="81.330589" y="362.341969" style="fill: #8a94a3; stroke: #8a94a3; stroke-width: 0.8"/>
      </g>
     </g>
     <g id="text_1">
      <!-- −3 -->
      <g style="fill: #8a94a3" transform="translate(73.590941 377.320328) scale(0.105 -0.105)">
       <defs>
        <path id="DejaVuSans-2212" d="M 678 2272 
L 4684 2272 
L 4684 1741 
L 678 1741 
L 678 2272 
z
" transform="scale(0.015625)"/>
        <path id="DejaVuSans-33" d="M 2597 2516 
Q 3050 2419 3304 2112 
Q 3559 1806 3559 1356 
Q 3559 666 3084 287 
Q 2609 -91 1734 -91 
Q 1441 -91 1130 -33 
Q 819 25 488 141 
L 488 750 
Q 750 597 1062 519 
Q 1375 441 1716 441 
Q 2309 441 2620 675 
Q 2931 909 2931 1356 
Q 2931 1769 2642 2001 
Q 2353 2234 1838 2234 
L 1294 2234 
L 1294 2753 
L 1863 2753 
Q 2328 2753 2575 2939 
Q 2822 3125 2822 3475 
Q 2822 3834 2567 4026 
Q 2313 4219 1838 4219 
Q 1578 4219 1281 4162 
Q 984 4106 628 3988 
L 628 4550 
Q 988 4650 1302 4700 
Q 1616 4750 1894 4750 
Q 2613 4750 3031 4423 
Q 3450 4097 3450 3541 
Q 3450 3153 3228 2886 
Q 3006 2619 2597 2516 
z
" transform="scale(0.015625)"/>
       </defs>
       <use xlink:href="#DejaVuSans-2212"/>
       <use xlink:href="#DejaVuSans-33" transform="translate(83.789062 0)"/>
      </g>
     </g>
    </g>
    <g id="xtick_2">
     <g id="line2d_3">
      <path d="M 165.876044 362.341969 
L 165.876044 51.877969 
" clip-path="url(#p48e287c952)" style="fill: none; stroke: #232a34; stroke-width: 0.8; stroke-linecap: round"/>
     </g>
     <g id="line2d_4">
      <g>
       <use xlink:href="#m82ede6b9fe" x="165.876044" y="362.341969" style="fill: #8a94a3; stroke: #8a94a3; stroke-width: 0.8"/>
      </g>
     </g>
     <g id="text_2">
      <!-- −2 -->
      <g style="fill: #8a94a3" transform="translate(158.136396 377.320328) scale(0.105 -0.105)">
       <defs>
        <path id="DejaVuSans-32" d="M 1228 531 
L 3431 531 
L 3431 0 
L 469 0 
L 469 531 
Q 828 903 1448 1529 
Q 2069 2156 2228 2338 
Q 2531 2678 2651 2914 
Q 2772 3150 2772 3378 
Q 2772 3750 2511 3984 
Q 2250 4219 1831 4219 
Q 1534 4219 1204 4116 
Q 875 4013 500 3803 
L 500 4441 
Q 881 4594 1212 4672 
Q 1544 4750 1819 4750 
Q 2544 4750 2975 4387 
Q 3406 4025 3406 3419 
Q 3406 3131 3298 2873 
Q 3191 2616 2906 2266 
Q 2828 2175 2409 1742 
Q 1991 1309 1228 531 
z
" transform="scale(0.015625)"/>
       </defs>
       <use xlink:href="#DejaVuSans-2212"/>
       <use xlink:href="#DejaVuSans-32" transform="translate(83.789062 0)"/>
      </g>
     </g>
    </g>
    <g id="xtick_3">
     <g id="line2d_5">
      <path d="M 250.421499 362.341969 
L 250.421499 51.877969 
" clip-path="url(#p48e287c952)" style="fill: none; stroke: #232a34; stroke-width: 0.8; stroke-linecap: round"/>
     </g>
     <g id="line2d_6">
      <g>
       <use xlink:href="#m82ede6b9fe" x="250.421499" y="362.341969" style="fill: #8a94a3; stroke: #8a94a3; stroke-width: 0.8"/>
      </g>
     </g>
     <g id="text_3">
      <!-- −1 -->
      <g style="fill: #8a94a3" transform="translate(242.68185 377.320328) scale(0.105 -0.105)">
       <defs>
        <path id="DejaVuSans-31" d="M 794 531 
L 1825 531 
L 1825 4091 
L 703 3866 
L 703 4441 
L 1819 4666 
L 2450 4666 
L 2450 531 
L 3481 531 
L 3481 0 
L 794 0 
L 794 531 
z
" transform="scale(0.015625)"/>
       </defs>
       <use xlink:href="#DejaVuSans-2212"/>
       <use xlink:href="#DejaVuSans-31" transform="translate(83.789062 0)"/>
      </g>
     </g>
    </g>
    <g id="xtick_4">
     <g id="line2d_7">
      <path d="M 334.966953 362.341969 
L 334.966953 51.877969 
" clip-path="url(#p48e287c952)" style="fill: none; stroke: #232a34; stroke-width: 0.8; stroke-linecap: round"/>
     </g>
     <g id="line2d_8">
      <g>
       <use xlink:href="#m82ede6b9fe" x="334.966953" y="362.341969" style="fill: #8a94a3; stroke: #8a94a3; stroke-width: 0.8"/>
      </g>
     </g>
     <g id="text_4">
      <!-- 0 -->
      <g style="fill: #8a94a3" transform="translate(331.626641 377.320328) scale(0.105 -0.105)">
       <defs>
        <path id="DejaVuSans-30" d="M 2034 4250 
Q 1547 4250 1301 3770 
Q 1056 3291 1056 2328 
Q 1056 1369 1301 889 
Q 1547 409 2034 409 
Q 2525 409 2770 889 
Q 3016 1369 3016 2328 
Q 3016 3291 2770 3770 
Q 2525 4250 2034 4250 
z
M 2034 4750 
Q 2819 4750 3233 4129 
Q 3647 3509 3647 2328 
Q 3647 1150 3233 529 
Q 2819 -91 2034 -91 
Q 1250 -91 836 529 
Q 422 1150 422 2328 
Q 422 3509 836 4129 
Q 1250 4750 2034 4750 
z
" transform="scale(0.015625)"/>
       </defs>
       <use xlink:href="#DejaVuSans-30"/>
      </g>
     </g>
    </g>
    <g id="xtick_5">
     <g id="line2d_9">
      <path d="M 419.512408 362.341969 
L 419.512408 51.877969 
" clip-path="url(#p48e287c952)" style="fill: none; stroke: #232a34; stroke-width: 0.8; stroke-linecap: round"/>
     </g>
     <g id="line2d_10">
      <g>
       <use xlink:href="#m82ede6b9fe" x="419.512408" y="362.341969" style="fill: #8a94a3; stroke: #8a94a3; stroke-width: 0.8"/>
      </g>
     </g>
     <g id="text_5">
      <!-- 1 -->
      <g style="fill: #8a94a3" transform="translate(416.172095 377.320328) scale(0.105 -0.105)">
       <use xlink:href="#DejaVuSans-31"/>
      </g>
     </g>
    </g>
    <g id="xtick_6">
     <g id="line2d_11">
      <path d="M 504.057862 362.341969 
L 504.057862 51.877969 
" clip-path="url(#p48e287c952)" style="fill: none; stroke: #232a34; stroke-width: 0.8; stroke-linecap: round"/>
     </g>
     <g id="line2d_12">
      <g>
       <use xlink:href="#m82ede6b9fe" x="504.057862" y="362.341969" style="fill: #8a94a3; stroke: #8a94a3; stroke-width: 0.8"/>
      </g>
     </g>
     <g id="text_6">
      <!-- 2 -->
      <g style="fill: #8a94a3" transform="translate(500.71755 377.320328) scale(0.105 -0.105)">
       <use xlink:href="#DejaVuSans-32"/>
      </g>
     </g>
    </g>
    <g id="xtick_7">
     <g id="line2d_13">
      <path d="M 588.603317 362.341969 
L 588.603317 51.877969 
" clip-path="url(#p48e287c952)" style="fill: none; stroke: #232a34; stroke-width: 0.8; stroke-linecap: round"/>
     </g>
     <g id="line2d_14">
      <g>
       <use xlink:href="#m82ede6b9fe" x="588.603317" y="362.341969" style="fill: #8a94a3; stroke: #8a94a3; stroke-width: 0.8"/>
      </g>
     </g>
     <g id="text_7">
      <!-- 3 -->
      <g style="fill: #8a94a3" transform="translate(585.263004 377.320328) scale(0.105 -0.105)">
       <use xlink:href="#DejaVuSans-33"/>
      </g>
     </g>
    </g>
    <g id="text_8">
     <!-- gate voltage V_G (V) -->
     <g style="fill: #aab3c0" transform="translate(280.533477 391.482359) scale(0.105 -0.105)">
      <defs>
       <path id="DejaVuSans-67" d="M 2906 1791 
Q 2906 2416 2648 2759 
Q 2391 3103 1925 3103 
Q 1463 3103 1205 2759 
Q 947 2416 947 1791 
Q 947 1169 1205 825 
Q 1463 481 1925 481 
Q 2391 481 2648 825 
Q 2906 1169 2906 1791 
z
M 3481 434 
Q 3481 -459 3084 -895 
Q 2688 -1331 1869 -1331 
Q 1566 -1331 1297 -1286 
Q 1028 -1241 775 -1147 
L 775 -588 
Q 1028 -725 1275 -790 
Q 1522 -856 1778 -856 
Q 2344 -856 2625 -561 
Q 2906 -266 2906 331 
L 2906 616 
Q 2728 306 2450 153 
Q 2172 0 1784 0 
Q 1141 0 747 490 
Q 353 981 353 1791 
Q 353 2603 747 3093 
Q 1141 3584 1784 3584 
Q 2172 3584 2450 3431 
Q 2728 3278 2906 2969 
L 2906 3500 
L 3481 3500 
L 3481 434 
z
" transform="scale(0.015625)"/>
       <path id="DejaVuSans-61" d="M 2194 1759 
Q 1497 1759 1228 1600 
Q 959 1441 959 1056 
Q 959 750 1161 570 
Q 1363 391 1709 391 
Q 2188 391 2477 730 
Q 2766 1069 2766 1631 
L 2766 1759 
L 2194 1759 
z
M 3341 1997 
L 3341 0 
L 2766 0 
L 2766 531 
Q 2569 213 2275 61 
Q 1981 -91 1556 -91 
Q 1019 -91 701 211 
Q 384 513 384 1019 
Q 384 1609 779 1909 
Q 1175 2209 1959 2209 
L 2766 2209 
L 2766 2266 
Q 2766 2663 2505 2880 
Q 2244 3097 1772 3097 
Q 1472 3097 1187 3025 
Q 903 2953 641 2809 
L 641 3341 
Q 956 3463 1253 3523 
Q 1550 3584 1831 3584 
Q 2591 3584 2966 3190 
Q 3341 2797 3341 1997 
z
" transform="scale(0.015625)"/>
       <path id="DejaVuSans-74" d="M 1172 4494 
L 1172 3500 
L 2356 3500 
L 2356 3053 
L 1172 3053 
L 1172 1153 
Q 1172 725 1289 603 
Q 1406 481 1766 481 
L 2356 481 
L 2356 0 
L 1766 0 
Q 1100 0 847 248 
Q 594 497 594 1153 
L 594 3053 
L 172 3053 
L 172 3500 
L 594 3500 
L 594 4494 
L 1172 4494 
z
" transform="scale(0.015625)"/>
       <path id="DejaVuSans-65" d="M 3597 1894 
L 3597 1613 
L 953 1613 
Q 991 1019 1311 708 
Q 1631 397 2203 397 
Q 2534 397 2845 478 
Q 3156 559 3463 722 
L 3463 178 
Q 3153 47 2828 -22 
Q 2503 -91 2169 -91 
Q 1331 -91 842 396 
Q 353 884 353 1716 
Q 353 2575 817 3079 
Q 1281 3584 2069 3584 
Q 2775 3584 3186 3129 
Q 3597 2675 3597 1894 
z
M 3022 2063 
Q 3016 2534 2758 2815 
Q 2500 3097 2075 3097 
Q 1594 3097 1305 2825 
Q 1016 2553 972 2059 
L 3022 2063 
z
" transform="scale(0.015625)"/>
       <path id="DejaVuSans-20" transform="scale(0.015625)"/>
       <path id="DejaVuSans-76" d="M 191 3500 
L 800 3500 
L 1894 563 
L 2988 3500 
L 3597 3500 
L 2284 0 
L 1503 0 
L 191 3500 
z
" transform="scale(0.015625)"/>
       <path id="DejaVuSans-6f" d="M 1959 3097 
Q 1497 3097 1228 2736 
Q 959 2375 959 1747 
Q 959 1119 1226 758 
Q 1494 397 1959 397 
Q 2419 397 2687 759 
Q 2956 1122 2956 1747 
Q 2956 2369 2687 2733 
Q 2419 3097 1959 3097 
z
M 1959 3584 
Q 2709 3584 3137 3096 
Q 3566 2609 3566 1747 
Q 3566 888 3137 398 
Q 2709 -91 1959 -91 
Q 1206 -91 779 398 
Q 353 888 353 1747 
Q 353 2609 779 3096 
Q 1206 3584 1959 3584 
z
" transform="scale(0.015625)"/>
       <path id="DejaVuSans-6c" d="M 603 4863 
L 1178 4863 
L 1178 0 
L 603 0 
L 603 4863 
z
" transform="scale(0.015625)"/>
       <path id="DejaVuSans-56" d="M 1831 0 
L 50 4666 
L 709 4666 
L 2188 738 
L 3669 4666 
L 4325 4666 
L 2547 0 
L 1831 0 
z
" transform="scale(0.015625)"/>
       <path id="DejaVuSans-5f" d="M 3263 -1063 
L 3263 -1509 
L -63 -1509 
L -63 -1063 
L 3263 -1063 
z
" transform="scale(0.015625)"/>
       <path id="DejaVuSans-47" d="M 3809 666 
L 3809 1919 
L 2778 1919 
L 2778 2438 
L 4434 2438 
L 4434 434 
Q 4069 175 3628 42 
Q 3188 -91 2688 -91 
Q 1594 -91 976 548 
Q 359 1188 359 2328 
Q 359 3472 976 4111 
Q 1594 4750 2688 4750 
Q 3144 4750 3555 4637 
Q 3966 4525 4313 4306 
L 4313 3634 
Q 3963 3931 3569 4081 
Q 3175 4231 2741 4231 
Q 1884 4231 1454 3753 
Q 1025 3275 1025 2328 
Q 1025 1384 1454 906 
Q 1884 428 2741 428 
Q 3075 428 3337 486 
Q 3600 544 3809 666 
z
" transform="scale(0.015625)"/>
       <path id="DejaVuSans-28" d="M 1984 4856 
Q 1566 4138 1362 3434 
Q 1159 2731 1159 2009 
Q 1159 1288 1364 580 
Q 1569 -128 1984 -844 
L 1484 -844 
Q 1016 -109 783 600 
Q 550 1309 550 2009 
Q 550 2706 781 3412 
Q 1013 4119 1484 4856 
L 1984 4856 
z
" transform="scale(0.015625)"/>
       <path id="DejaVuSans-29" d="M 513 4856 
L 1013 4856 
Q 1481 4119 1714 3412 
Q 1947 2706 1947 2009 
Q 1947 1309 1714 600 
Q 1481 -109 1013 -844 
L 513 -844 
Q 928 -128 1133 580 
Q 1338 1288 1338 2009 
Q 1338 2731 1133 3434 
Q 928 4138 513 4856 
z
" transform="scale(0.015625)"/>
      </defs>
      <use xlink:href="#DejaVuSans-67"/>
      <use xlink:href="#DejaVuSans-61" transform="translate(63.476562 0)"/>
      <use xlink:href="#DejaVuSans-74" transform="translate(124.755859 0)"/>
      <use xlink:href="#DejaVuSans-65" transform="translate(163.964844 0)"/>
      <use xlink:href="#DejaVuSans-20" transform="translate(225.488281 0)"/>
      <use xlink:href="#DejaVuSans-76" transform="translate(257.275391 0)"/>
      <use xlink:href="#DejaVuSans-6f" transform="translate(316.455078 0)"/>
      <use xlink:href="#DejaVuSans-6c" transform="translate(377.636719 0)"/>
      <use xlink:href="#DejaVuSans-74" transform="translate(405.419922 0)"/>
      <use xlink:href="#DejaVuSans-61" transform="translate(444.628906 0)"/>
      <use xlink:href="#DejaVuSans-67" transform="translate(505.908203 0)"/>
      <use xlink:href="#DejaVuSans-65" transform="translate(569.384766 0)"/>
      <use xlink:href="#DejaVuSans-20" transform="translate(630.908203 0)"/>
      <use xlink:href="#DejaVuSans-56" transform="translate(662.695312 0)"/>
      <use xlink:href="#DejaVuSans-5f" transform="translate(731.103516 0)"/>
      <use xlink:href="#DejaVuSans-47" transform="translate(781.103516 0)"/>
      <use xlink:href="#DejaVuSans-20" transform="translate(858.59375 0)"/>
      <use xlink:href="#DejaVuSans-28" transform="translate(890.380859 0)"/>
      <use xlink:href="#DejaVuSans-56" transform="translate(929.394531 0)"/>
      <use xlink:href="#DejaVuSans-29" transform="translate(997.802734 0)"/>
     </g>
    </g>
   </g>
   <g id="matplotlib.axis_2">
    <g id="ytick_1">
     <g id="line2d_15">
      <path d="M 55.966953 362.341969 
L 613.966953 362.341969 
" clip-path="url(#p48e287c952)" style="fill: none; stroke: #232a34; stroke-width: 0.8; stroke-linecap: round"/>
     </g>
     <g id="line2d_16">
      <defs>
       <path id="mb0d813e210" d="M 0 0 
L -3.5 0 
" style="stroke: #8a94a3; stroke-width: 0.8"/>
      </defs>
      <g>
       <use xlink:href="#mb0d813e210" x="55.966953" y="362.341969" style="fill: #8a94a3; stroke: #8a94a3; stroke-width: 0.8"/>
      </g>
     </g>
     <g id="text_9">
      <!-- 0.0 -->
      <g style="fill: #8a94a3" transform="translate(32.268672 366.331148) scale(0.105 -0.105)">
       <defs>
        <path id="DejaVuSans-2e" d="M 684 794 
L 1344 794 
L 1344 0 
L 684 0 
L 684 794 
z
" transform="scale(0.015625)"/>
       </defs>
       <use xlink:href="#DejaVuSans-30"/>
       <use xlink:href="#DejaVuSans-2e" transform="translate(63.623047 0)"/>
       <use xlink:href="#DejaVuSans-30" transform="translate(95.410156 0)"/>
      </g>
     </g>
    </g>
    <g id="ytick_2">
     <g id="line2d_17">
      <path d="M 55.966953 303.205969 
L 613.966953 303.205969 
" clip-path="url(#p48e287c952)" style="fill: none; stroke: #232a34; stroke-width: 0.8; stroke-linecap: round"/>
     </g>
     <g id="line2d_18">
      <g>
       <use xlink:href="#mb0d813e210" x="55.966953" y="303.205969" style="fill: #8a94a3; stroke: #8a94a3; stroke-width: 0.8"/>
      </g>
     </g>
     <g id="text_10">
      <!-- 0.2 -->
      <g style="fill: #8a94a3" transform="translate(32.268672 307.195148) scale(0.105 -0.105)">
       <use xlink:href="#DejaVuSans-30"/>
       <use xlink:href="#DejaVuSans-2e" transform="translate(63.623047 0)"/>
       <use xlink:href="#DejaVuSans-32" transform="translate(95.410156 0)"/>
      </g>
     </g>
    </g>
    <g id="ytick_3">
     <g id="line2d_19">
      <path d="M 55.966953 244.069969 
L 613.966953 244.069969 
" clip-path="url(#p48e287c952)" style="fill: none; stroke: #232a34; stroke-width: 0.8; stroke-linecap: round"/>
     </g>
     <g id="line2d_20">
      <g>
       <use xlink:href="#mb0d813e210" x="55.966953" y="244.069969" style="fill: #8a94a3; stroke: #8a94a3; stroke-width: 0.8"/>
      </g>
     </g>
     <g id="text_11">
      <!-- 0.4 -->
      <g style="fill: #8a94a3" transform="translate(32.268672 248.059148) scale(0.105 -0.105)">
       <defs>
        <path id="DejaVuSans-34" d="M 2419 4116 
L 825 1625 
L 2419 1625 
L 2419 4116 
z
M 2253 4666 
L 3047 4666 
L 3047 1625 
L 3713 1625 
L 3713 1100 
L 3047 1100 
L 3047 0 
L 2419 0 
L 2419 1100 
L 313 1100 
L 313 1709 
L 2253 4666 
z
" transform="scale(0.015625)"/>
       </defs>
       <use xlink:href="#DejaVuSans-30"/>
       <use xlink:href="#DejaVuSans-2e" transform="translate(63.623047 0)"/>
       <use xlink:href="#DejaVuSans-34" transform="translate(95.410156 0)"/>
      </g>
     </g>
    </g>
    <g id="ytick_4">
     <g id="line2d_21">
      <path d="M 55.966953 184.933969 
L 613.966953 184.933969 
" clip-path="url(#p48e287c952)" style="fill: none; stroke: #232a34; stroke-width: 0.8; stroke-linecap: round"/>
     </g>
     <g id="line2d_22">
      <g>
       <use xlink:href="#mb0d813e210" x="55.966953" y="184.933969" style="fill: #8a94a3; stroke: #8a94a3; stroke-width: 0.8"/>
      </g>
     </g>
     <g id="text_12">
      <!-- 0.6 -->
      <g style="fill: #8a94a3" transform="translate(32.268672 188.923148) scale(0.105 -0.105)">
       <defs>
        <path id="DejaVuSans-36" d="M 2113 2584 
Q 1688 2584 1439 2293 
Q 1191 2003 1191 1497 
Q 1191 994 1439 701 
Q 1688 409 2113 409 
Q 2538 409 2786 701 
Q 3034 994 3034 1497 
Q 3034 2003 2786 2293 
Q 2538 2584 2113 2584 
z
M 3366 4563 
L 3366 3988 
Q 3128 4100 2886 4159 
Q 2644 4219 2406 4219 
Q 1781 4219 1451 3797 
Q 1122 3375 1075 2522 
Q 1259 2794 1537 2939 
Q 1816 3084 2150 3084 
Q 2853 3084 3261 2657 
Q 3669 2231 3669 1497 
Q 3669 778 3244 343 
Q 2819 -91 2113 -91 
Q 1303 -91 875 529 
Q 447 1150 447 2328 
Q 447 3434 972 4092 
Q 1497 4750 2381 4750 
Q 2619 4750 2861 4703 
Q 3103 4656 3366 4563 
z
" transform="scale(0.015625)"/>
       </defs>
       <use xlink:href="#DejaVuSans-30"/>
       <use xlink:href="#DejaVuSans-2e" transform="translate(63.623047 0)"/>
       <use xlink:href="#DejaVuSans-36" transform="translate(95.410156 0)"/>
      </g>
     </g>
    </g>
    <g id="ytick_5">
     <g id="line2d_23">
      <path d="M 55.966953 125.797969 
L 613.966953 125.797969 
" clip-path="url(#p48e287c952)" style="fill: none; stroke: #232a34; stroke-width: 0.8; stroke-linecap: round"/>
     </g>
     <g id="line2d_24">
      <g>
       <use xlink:href="#mb0d813e210" x="55.966953" y="125.797969" style="fill: #8a94a3; stroke: #8a94a3; stroke-width: 0.8"/>
      </g>
     </g>
     <g id="text_13">
      <!-- 0.8 -->
      <g style="fill: #8a94a3" transform="translate(32.268672 129.787148) scale(0.105 -0.105)">
       <defs>
        <path id="DejaVuSans-38" d="M 2034 2216 
Q 1584 2216 1326 1975 
Q 1069 1734 1069 1313 
Q 1069 891 1326 650 
Q 1584 409 2034 409 
Q 2484 409 2743 651 
Q 3003 894 3003 1313 
Q 3003 1734 2745 1975 
Q 2488 2216 2034 2216 
z
M 1403 2484 
Q 997 2584 770 2862 
Q 544 3141 544 3541 
Q 544 4100 942 4425 
Q 1341 4750 2034 4750 
Q 2731 4750 3128 4425 
Q 3525 4100 3525 3541 
Q 3525 3141 3298 2862 
Q 3072 2584 2669 2484 
Q 3125 2378 3379 2068 
Q 3634 1759 3634 1313 
Q 3634 634 3220 271 
Q 2806 -91 2034 -91 
Q 1263 -91 848 271 
Q 434 634 434 1313 
Q 434 1759 690 2068 
Q 947 2378 1403 2484 
z
M 1172 3481 
Q 1172 3119 1398 2916 
Q 1625 2713 2034 2713 
Q 2441 2713 2670 2916 
Q 2900 3119 2900 3481 
Q 2900 3844 2670 4047 
Q 2441 4250 2034 4250 
Q 1625 4250 1398 4047 
Q 1172 3844 1172 3481 
z
" transform="scale(0.015625)"/>
       </defs>
       <use xlink:href="#DejaVuSans-30"/>
       <use xlink:href="#DejaVuSans-2e" transform="translate(63.623047 0)"/>
       <use xlink:href="#DejaVuSans-38" transform="translate(95.410156 0)"/>
      </g>
     </g>
    </g>
    <g id="ytick_6">
     <g id="line2d_25">
      <path d="M 55.966953 66.661969 
L 613.966953 66.661969 
" clip-path="url(#p48e287c952)" style="fill: none; stroke: #232a34; stroke-width: 0.8; stroke-linecap: round"/>
     </g>
     <g id="line2d_26">
      <g>
       <use xlink:href="#mb0d813e210" x="55.966953" y="66.661969" style="fill: #8a94a3; stroke: #8a94a3; stroke-width: 0.8"/>
      </g>
     </g>
     <g id="text_14">
      <!-- 1.0 -->
      <g style="fill: #8a94a3" transform="translate(32.268672 70.651148) scale(0.105 -0.105)">
       <use xlink:href="#DejaVuSans-31"/>
       <use xlink:href="#DejaVuSans-2e" transform="translate(63.623047 0)"/>
       <use xlink:href="#DejaVuSans-30" transform="translate(95.410156 0)"/>
      </g>
     </g>
    </g>
    <g id="text_15">
     <!-- C / C_ox -->
     <g style="fill: #aab3c0" transform="translate(25.792969 228.328172) rotate(-90) scale(0.105 -0.105)">
      <defs>
       <path id="DejaVuSans-43" d="M 4122 4306 
L 4122 3641 
Q 3803 3938 3442 4084 
Q 3081 4231 2675 4231 
Q 1875 4231 1450 3742 
Q 1025 3253 1025 2328 
Q 1025 1406 1450 917 
Q 1875 428 2675 428 
Q 3081 428 3442 575 
Q 3803 722 4122 1019 
L 4122 359 
Q 3791 134 3420 21 
Q 3050 -91 2638 -91 
Q 1578 -91 968 557 
Q 359 1206 359 2328 
Q 359 3453 968 4101 
Q 1578 4750 2638 4750 
Q 3056 4750 3426 4639 
Q 3797 4528 4122 4306 
z
" transform="scale(0.015625)"/>
       <path id="DejaVuSans-2f" d="M 1625 4666 
L 2156 4666 
L 531 -594 
L 0 -594 
L 1625 4666 
z
" transform="scale(0.015625)"/>
       <path id="DejaVuSans-78" d="M 3513 3500 
L 2247 1797 
L 3578 0 
L 2900 0 
L 1881 1375 
L 863 0 
L 184 0 
L 1544 1831 
L 300 3500 
L 978 3500 
L 1906 2253 
L 2834 3500 
L 3513 3500 
z
" transform="scale(0.015625)"/>
      </defs>
      <use xlink:href="#DejaVuSans-43"/>
      <use xlink:href="#DejaVuSans-20" transform="translate(69.824219 0)"/>
      <use xlink:href="#DejaVuSans-2f" transform="translate(101.611328 0)"/>
      <use xlink:href="#DejaVuSans-20" transform="translate(135.302734 0)"/>
      <use xlink:href="#DejaVuSans-43" transform="translate(167.089844 0)"/>
      <use xlink:href="#DejaVuSans-5f" transform="translate(236.914062 0)"/>
      <use xlink:href="#DejaVuSans-6f" transform="translate(286.914062 0)"/>
      <use xlink:href="#DejaVuSans-78" transform="translate(344.970703 0)"/>
     </g>
    </g>
   </g>
   <g id="line2d_27">
    <path d="M 81.330589 74.257115 
L 100.353317 75.174418 
L 117.262408 76.192222 
L 132.057862 77.298598 
L 144.73968 78.465634 
L 155.307862 79.644576 
L 165.876044 81.072948 
L 174.330589 82.450732 
L 180.671499 83.659771 
L 187.012408 85.056987 
L 193.353317 86.687078 
L 199.694226 88.609239 
L 203.921499 90.091042 
L 208.148771 91.767961 
L 212.376044 93.677524 
L 216.603317 95.866198 
L 220.830589 98.392477 
L 225.057862 101.330529 
L 229.285135 104.772662 
L 231.398771 106.718149 
L 233.512408 108.835197 
L 235.626044 111.143324 
L 237.73968 113.663389 
L 239.853317 116.417722 
L 241.966953 119.430989 
L 244.080589 122.729412 
L 246.194226 126.339331 
L 248.307862 130.287249 
L 250.421499 134.596721 
L 252.535135 139.287625 
L 254.648771 144.372154 
L 256.762408 149.851498 
L 258.876044 155.711721 
L 263.103317 168.421877 
L 275.785135 208.447179 
L 277.898771 214.378407 
L 280.012408 219.92346 
L 282.126044 225.067547 
L 284.23968 229.814929 
L 286.353317 234.183486 
L 288.466953 238.199481 
L 290.580589 241.893243 
L 292.694226 245.296024 
L 294.807862 248.437888 
L 296.921499 251.346696 
L 299.035135 254.047563 
L 303.262408 258.911697 
L 307.48968 263.177152 
L 311.716953 266.955846 
L 315.944226 270.333328 
L 320.171499 273.375774 
L 324.398771 276.135091 
L 328.626044 278.652609 
L 332.853317 280.961628 
L 339.194226 284.091773 
L 345.535135 286.878368 
L 349.762408 288.551447 
L 353.98968 290.009144 
L 356.103317 290.578019 
L 358.216953 290.920392 
L 360.330589 290.823995 
L 362.444226 289.86482 
L 364.557862 287.239915 
L 366.671499 281.5877 
L 368.785135 271.08502 
L 370.898771 254.402811 
L 373.012408 232.397436 
L 375.126044 208.419782 
L 377.23968 186.082341 
L 379.353317 167.277244 
L 381.466953 152.232918 
L 383.580589 140.408419 
L 385.694226 131.107405 
L 387.807862 123.718144 
L 389.921499 117.769237 
L 392.035135 112.911157 
L 394.148771 108.887893 
L 396.262408 105.512253 
L 398.376044 102.644198 
L 400.48968 100.182405 
L 402.603317 98.046924 
L 404.716953 96.179521 
L 406.830589 94.532092 
L 408.944226 93.069003 
L 411.057862 91.760092 
L 415.285135 89.518781 
L 419.512408 87.66785 
L 423.73968 86.112774 
L 427.966953 84.786228 
L 432.194226 83.641112 
L 438.535135 82.187286 
L 444.876044 80.977365 
L 453.330589 79.645499 
L 461.785135 78.552881 
L 472.353317 77.433223 
L 485.035135 76.350768 
L 499.830589 75.343788 
L 516.73968 74.429608 
L 537.876044 73.532836 
L 563.23968 72.702176 
L 588.603317 72.05391 
L 588.603317 72.05391 
" clip-path="url(#p48e287c952)" style="fill: none; stroke: #3987e5; stroke-width: 2; stroke-linecap: round"/>
   </g>
   <g id="line2d_28">
    <path d="M 81.330589 74.257115 
L 100.353317 75.174418 
L 117.262408 76.192222 
L 132.057862 77.298598 
L 144.73968 78.465634 
L 155.307862 79.644576 
L 165.876044 81.072948 
L 174.330589 82.450732 
L 180.671499 83.659771 
L 187.012408 85.056987 
L 193.353317 86.687078 
L 199.694226 88.609239 
L 203.921499 90.091042 
L 208.148771 91.767961 
L 212.376044 93.677524 
L 216.603317 95.866198 
L 220.830589 98.392477 
L 225.057862 101.330529 
L 229.285135 104.772662 
L 231.398771 106.718149 
L 233.512408 108.835197 
L 235.626044 111.143324 
L 237.73968 113.663389 
L 239.853317 116.417722 
L 241.966953 119.430989 
L 244.080589 122.729412 
L 246.194226 126.339331 
L 248.307862 130.287249 
L 250.421499 134.596721 
L 252.535135 139.287625 
L 254.648771 144.372154 
L 256.762408 149.851498 
L 258.876044 155.711721 
L 263.103317 168.421877 
L 275.785135 208.447179 
L 277.898771 214.378407 
L 280.012408 219.92346 
L 282.126044 225.067547 
L 284.23968 229.814929 
L 286.353317 234.183486 
L 288.466953 238.199481 
L 290.580589 241.893243 
L 292.694226 245.296024 
L 294.807862 248.437888 
L 296.921499 251.346696 
L 299.035135 254.047563 
L 303.262408 258.911697 
L 307.48968 263.177152 
L 311.716953 266.955846 
L 315.944226 270.333328 
L 320.171499 273.375776 
L 324.398771 276.1351 
L 328.626044 278.652647 
L 332.853317 280.961775 
L 339.194226 284.092976 
L 345.535135 286.888455 
L 351.876044 289.403916 
L 358.216953 291.680825 
L 364.557862 293.736087 
L 368.785135 294.950727 
L 370.898771 295.48441 
L 499.830589 295.486253 
L 588.603317 295.486253 
L 588.603317 295.486253 
" clip-path="url(#p48e287c952)" style="fill: none; stroke-dasharray: 7.4,3.2; stroke-dashoffset: 0; stroke: #3987e5; stroke-width: 2"/>
   </g>
   <g id="line2d_29">
    <path d="M 81.330589 74.453468 
L 100.353317 75.427642 
L 117.262408 76.518265 
L 132.057862 77.715884 
L 144.73968 78.993351 
L 155.307862 80.299514 
L 163.762408 81.554124 
L 172.216953 83.052753 
L 178.557862 84.381678 
L 184.898771 85.933422 
L 191.23968 87.76743 
L 195.466953 89.185025 
L 199.694226 90.793805 
L 203.921499 92.633561 
L 208.148771 94.753763 
L 212.376044 97.219116 
L 216.603317 100.113851 
L 218.716953 101.755735 
L 220.830589 103.549467 
L 222.944226 105.514471 
L 225.057862 107.674473 
L 227.171499 110.055249 
L 229.285135 112.688687 
L 231.398771 115.610176 
L 233.512408 118.862142 
L 235.626044 122.49205 
L 237.73968 126.555069 
L 239.853317 131.113088 
L 241.966953 136.234432 
L 244.080589 141.992139 
L 246.194226 148.458628 
L 248.307862 155.700145 
L 250.421499 163.763416 
L 252.535135 172.661106 
L 254.648771 182.34993 
L 258.876044 203.538343 
L 263.103317 225.386828 
L 265.216953 235.733317 
L 267.330589 245.30696 
L 269.444226 253.932787 
L 271.557862 261.546409 
L 273.671499 268.175213 
L 275.785135 273.906254 
L 277.898771 278.85455 
L 280.012408 283.139399 
L 282.126044 286.870777 
L 284.23968 290.14354 
L 286.353317 293.036344 
L 288.466953 295.613102 
L 290.580589 297.925209 
L 292.694226 300.013908 
L 294.807862 301.912453 
L 299.035135 305.241808 
L 303.262408 308.075577 
L 307.48968 310.525468 
L 311.716953 312.670948 
L 315.944226 314.570211 
L 320.171499 316.26685 
L 326.512408 318.501006 
L 332.853317 320.406631 
L 337.080589 321.408986 
L 339.194226 321.706031 
L 341.307862 321.667088 
L 343.421499 320.90164 
L 345.535135 318.571826 
L 347.648771 313.036642 
L 349.762408 301.683166 
L 351.876044 282.046911 
L 353.98968 254.822577 
L 356.103317 225.02056 
L 358.216953 198.020638 
L 360.330589 176.14981 
L 362.444226 159.256369 
L 364.557862 146.324541 
L 366.671499 136.332657 
L 368.785135 128.48489 
L 370.898771 122.206083 
L 373.012408 117.091503 
L 375.126044 112.856035 
L 377.23968 109.296354 
L 379.353317 106.264146 
L 381.466953 103.651632 
L 383.580589 101.376434 
L 385.694226 99.377444 
L 387.807862 97.607217 
L 389.921499 96.026904 
L 392.035135 94.607784 
L 396.262408 92.161211 
L 400.48968 90.124779 
L 404.716953 88.401196 
L 408.944226 86.922502 
L 413.171499 85.638297 
L 419.512408 83.998793 
L 425.853317 82.627087 
L 432.194226 81.460872 
L 440.648771 80.152 
L 449.103317 79.058946 
L 459.671499 77.921818 
L 472.353317 76.807611 
L 487.148771 75.759179 
L 504.057862 74.799398 
L 523.080589 73.936596 
L 546.330589 73.102313 
L 575.921499 72.282088 
L 588.603317 71.991154 
L 588.603317 71.991154 
" clip-path="url(#p48e287c952)" style="fill: none; stroke: #d95926; stroke-width: 2; stroke-linecap: round"/>
   </g>
   <g id="line2d_30">
    <path d="M 81.330589 74.453468 
L 100.353317 75.427642 
L 117.262408 76.518265 
L 132.057862 77.715884 
L 144.73968 78.993351 
L 155.307862 80.299514 
L 163.762408 81.554124 
L 172.216953 83.052753 
L 178.557862 84.381678 
L 184.898771 85.933422 
L 191.23968 87.76743 
L 195.466953 89.185025 
L 199.694226 90.793805 
L 203.921499 92.633561 
L 208.148771 94.753763 
L 212.376044 97.219116 
L 216.603317 100.113851 
L 218.716953 101.755735 
L 220.830589 103.549467 
L 222.944226 105.514471 
L 225.057862 107.674473 
L 227.171499 110.055249 
L 229.285135 112.688687 
L 231.398771 115.610176 
L 233.512408 118.862142 
L 235.626044 122.49205 
L 237.73968 126.555069 
L 239.853317 131.113088 
L 241.966953 136.234432 
L 244.080589 141.992139 
L 246.194226 148.458628 
L 248.307862 155.700145 
L 250.421499 163.763416 
L 252.535135 172.661106 
L 254.648771 182.34993 
L 258.876044 203.538343 
L 263.103317 225.386828 
L 265.216953 235.733317 
L 267.330589 245.30696 
L 269.444226 253.932787 
L 271.557862 261.546409 
L 273.671499 268.175213 
L 275.785135 273.906254 
L 277.898771 278.85455 
L 280.012408 283.139399 
L 282.126044 286.870777 
L 284.23968 290.14354 
L 286.353317 293.036344 
L 288.466953 295.613102 
L 290.580589 297.925209 
L 292.694226 300.013908 
L 294.807862 301.912453 
L 299.035135 305.241809 
L 303.262408 308.075578 
L 307.48968 310.52547 
L 311.716953 312.67096 
L 315.944226 314.57027 
L 320.171499 316.267138 
L 326.512408 318.504261 
L 332.853317 320.444175 
L 339.194226 322.146488 
L 345.535135 323.647154 
L 349.762408 324.524138 
L 351.876044 324.653243 
L 588.603317 324.653243 
L 588.603317 324.653243 
" clip-path="url(#p48e287c952)" style="fill: none; stroke-dasharray: 7.4,3.2; stroke-dashoffset: 0; stroke: #d95926; stroke-width: 2"/>
   </g>
   <g id="line2d_31">
    <path d="M 81.330589 74.664622 
L 100.353317 75.697588 
L 115.148771 76.701714 
L 127.830589 77.754335 
L 138.398771 78.811732 
L 148.966953 80.0859 
L 157.421499 81.308834 
L 165.876044 82.769112 
L 172.216953 84.063207 
L 178.557862 85.574855 
L 184.898771 87.361476 
L 189.126044 88.743348 
L 193.353317 90.313124 
L 197.580589 92.110096 
L 201.807862 94.185168 
L 206.035135 96.604424 
L 210.262408 99.455616 
L 212.376044 101.078669 
L 214.48968 102.857154 
L 216.603317 104.812853 
L 218.716953 106.971508 
L 220.830589 109.36319 
L 222.944226 112.024775 
L 225.057862 114.999879 
L 227.171499 118.339278 
L 229.285135 122.106392 
L 231.398771 126.376174 
L 233.512408 131.238088 
L 235.626044 136.798846 
L 237.73968 143.183981 
L 239.853317 150.536968 
L 241.966953 159.016376 
L 244.080589 168.781502 
L 246.194226 179.969973 
L 248.307862 192.652556 
L 250.421499 206.770023 
L 254.648771 237.978147 
L 256.762408 253.78161 
L 258.876044 268.618137 
L 260.98968 281.77933 
L 263.103317 292.876296 
L 265.216953 301.875291 
L 267.330589 309.000555 
L 269.444226 314.590713 
L 271.557862 318.989702 
L 273.671499 322.490762 
L 275.785135 325.322042 
L 277.898771 327.652383 
L 280.012408 329.60396 
L 282.126044 331.264695 
L 284.23968 332.698174 
L 286.353317 333.950957 
L 290.580589 336.044437 
L 294.807862 337.734349 
L 299.035135 339.13547 
L 303.262408 340.321637 
L 309.603317 341.802661 
L 315.944226 343.01897 
L 322.285135 344.025222 
L 326.512408 344.529824 
L 328.626044 344.644762 
L 330.73968 344.511707 
L 332.853317 343.797606 
L 334.966953 341.724518 
L 337.080589 336.612237 
L 339.194226 325.452549 
L 341.307862 304.900555 
L 343.421499 275.207034 
L 345.535135 242.374592 
L 347.648771 212.931979 
L 349.762408 189.387476 
L 351.876044 171.312839 
L 353.98968 157.452461 
L 356.103317 146.662151 
L 358.216953 138.095385 
L 360.330589 131.155194 
L 362.444226 125.42975 
L 364.557862 120.630605 
L 366.671499 116.551272 
L 368.785135 113.041157 
L 370.898771 109.98912 
L 373.012408 107.310767 
L 375.126044 104.941563 
L 377.23968 102.830218 
L 379.353317 100.937752 
L 381.466953 99.230857 
L 383.580589 97.683989 
L 387.807862 94.987323 
L 392.035135 92.71653 
L 396.262408 90.778158 
L 400.48968 89.103926 
L 404.716953 87.643989 
L 411.057862 85.774161 
L 417.398771 84.20577 
L 423.73968 82.871775 
L 432.194226 81.375923 
L 440.648771 80.129545 
L 451.216953 78.836677 
L 461.785135 77.767617 
L 474.466953 76.706446 
L 489.262408 75.696646 
L 506.171499 74.763476 
L 527.307862 73.834977 
L 552.671499 72.96591 
L 582.262408 72.183576 
L 588.603317 72.040342 
L 588.603317 72.040342 
" clip-path="url(#p48e287c952)" style="fill: none; stroke: #199e70; stroke-width: 2; stroke-linecap: round"/>
   </g>
   <g id="line2d_32">
    <path d="M 81.330589 74.664622 
L 100.353317 75.697588 
L 115.148771 76.701714 
L 127.830589 77.754335 
L 138.398771 78.811732 
L 148.966953 80.0859 
L 157.421499 81.308834 
L 165.876044 82.769112 
L 172.216953 84.063207 
L 178.557862 85.574855 
L 184.898771 87.361476 
L 189.126044 88.743348 
L 193.353317 90.313124 
L 197.580589 92.110096 
L 201.807862 94.185168 
L 206.035135 96.604424 
L 210.262408 99.455616 
L 212.376044 101.078669 
L 214.48968 102.857154 
L 216.603317 104.812853 
L 218.716953 106.971508 
L 220.830589 109.36319 
L 222.944226 112.024775 
L 225.057862 114.999879 
L 227.171499 118.339278 
L 229.285135 122.106392 
L 231.398771 126.376174 
L 233.512408 131.238088 
L 235.626044 136.798846 
L 237.73968 143.183981 
L 239.853317 150.536968 
L 241.966953 159.016376 
L 244.080589 168.781502 
L 246.194226 179.969973 
L 248.307862 192.652556 
L 250.421499 206.770023 
L 254.648771 237.978147 
L 256.762408 253.78161 
L 258.876044 268.618137 
L 260.98968 281.77933 
L 263.103317 292.876296 
L 265.216953 301.875291 
L 267.330589 309.000555 
L 269.444226 314.590713 
L 271.557862 318.989702 
L 273.671499 322.490762 
L 275.785135 325.322042 
L 277.898771 327.652383 
L 280.012408 329.60396 
L 282.126044 331.264695 
L 284.23968 332.698174 
L 286.353317 333.950957 
L 290.580589 336.044437 
L 294.807862 337.734349 
L 299.035135 339.135471 
L 303.262408 340.321644 
L 309.603317 341.802753 
L 315.944226 343.020281 
L 324.398771 344.350848 
L 332.853317 345.438112 
L 337.080589 345.906158 
L 339.194226 346.018045 
L 588.603317 346.018045 
L 588.603317 346.018045 
" clip-path="url(#p48e287c952)" style="fill: none; stroke-dasharray: 7.4,3.2; stroke-dashoffset: 0; stroke: #199e70; stroke-width: 2"/>
   </g>
   <g id="patch_3">
    <path d="M 55.966953 362.341969 
L 55.966953 51.877969 
" style="fill: none; stroke: #3a4350; stroke-width: 0.8; stroke-linejoin: miter; stroke-linecap: square"/>
   </g>
   <g id="patch_4">
    <path d="M 55.966953 362.341969 
L 613.966953 362.341969 
" style="fill: none; stroke: #3a4350; stroke-width: 0.8; stroke-linejoin: miter; stroke-linecap: square"/>
   </g>
   <g id="text_16">
    <!-- Exact surface-charge solution, p-Si 10¹⁷ cm⁻³. Accumulation → depletion → inversion; minority carriers can't follow at high frequency. -->
    <g style="fill: #8a94a3" transform="translate(55.966953 46.176698) scale(0.095 -0.095)">
     <defs>
      <path id="DejaVuSans-45" d="M 628 4666 
L 3578 4666 
L 3578 4134 
L 1259 4134 
L 1259 2753 
L 3481 2753 
L 3481 2222 
L 1259 2222 
L 1259 531 
L 3634 531 
L 3634 0 
L 628 0 
L 628 4666 
z
" transform="scale(0.015625)"/>
      <path id="DejaVuSans-63" d="M 3122 3366 
L 3122 2828 
Q 2878 2963 2633 3030 
Q 2388 3097 2138 3097 
Q 1578 3097 1268 2742 
Q 959 2388 959 1747 
Q 959 1106 1268 751 
Q 1578 397 2138 397 
Q 2388 397 2633 464 
Q 2878 531 3122 666 
L 3122 134 
Q 2881 22 2623 -34 
Q 2366 -91 2075 -91 
Q 1284 -91 818 406 
Q 353 903 353 1747 
Q 353 2603 823 3093 
Q 1294 3584 2113 3584 
Q 2378 3584 2631 3529 
Q 2884 3475 3122 3366 
z
" transform="scale(0.015625)"/>
      <path id="DejaVuSans-73" d="M 2834 3397 
L 2834 2853 
Q 2591 2978 2328 3040 
Q 2066 3103 1784 3103 
Q 1356 3103 1142 2972 
Q 928 2841 928 2578 
Q 928 2378 1081 2264 
Q 1234 2150 1697 2047 
L 1894 2003 
Q 2506 1872 2764 1633 
Q 3022 1394 3022 966 
Q 3022 478 2636 193 
Q 2250 -91 1575 -91 
Q 1294 -91 989 -36 
Q 684 19 347 128 
L 347 722 
Q 666 556 975 473 
Q 1284 391 1588 391 
Q 1994 391 2212 530 
Q 2431 669 2431 922 
Q 2431 1156 2273 1281 
Q 2116 1406 1581 1522 
L 1381 1569 
Q 847 1681 609 1914 
Q 372 2147 372 2553 
Q 372 3047 722 3315 
Q 1072 3584 1716 3584 
Q 2034 3584 2315 3537 
Q 2597 3491 2834 3397 
z
" transform="scale(0.015625)"/>
      <path id="DejaVuSans-75" d="M 544 1381 
L 544 3500 
L 1119 3500 
L 1119 1403 
Q 1119 906 1312 657 
Q 1506 409 1894 409 
Q 2359 409 2629 706 
Q 2900 1003 2900 1516 
L 2900 3500 
L 3475 3500 
L 3475 0 
L 2900 0 
L 2900 538 
Q 2691 219 2414 64 
Q 2138 -91 1772 -91 
Q 1169 -91 856 284 
Q 544 659 544 1381 
z
M 1991 3584 
L 1991 3584 
z
" transform="scale(0.015625)"/>
      <path id="DejaVuSans-72" d="M 2631 2963 
Q 2534 3019 2420 3045 
Q 2306 3072 2169 3072 
Q 1681 3072 1420 2755 
Q 1159 2438 1159 1844 
L 1159 0 
L 581 0 
L 581 3500 
L 1159 3500 
L 1159 2956 
Q 1341 3275 1631 3429 
Q 1922 3584 2338 3584 
Q 2397 3584 2469 3576 
Q 2541 3569 2628 3553 
L 2631 2963 
z
" transform="scale(0.015625)"/>
      <path id="DejaVuSans-66" d="M 2375 4863 
L 2375 4384 
L 1825 4384 
Q 1516 4384 1395 4259 
Q 1275 4134 1275 3809 
L 1275 3500 
L 2222 3500 
L 2222 3053 
L 1275 3053 
L 1275 0 
L 697 0 
L 697 3053 
L 147 3053 
L 147 3500 
L 697 3500 
L 697 3744 
Q 697 4328 969 4595 
Q 1241 4863 1831 4863 
L 2375 4863 
z
" transform="scale(0.015625)"/>
      <path id="DejaVuSans-2d" d="M 313 2009 
L 1997 2009 
L 1997 1497 
L 313 1497 
L 313 2009 
z
" transform="scale(0.015625)"/>
      <path id="DejaVuSans-68" d="M 3513 2113 
L 3513 0 
L 2938 0 
L 2938 2094 
Q 2938 2591 2744 2837 
Q 2550 3084 2163 3084 
Q 1697 3084 1428 2787 
Q 1159 2491 1159 1978 
L 1159 0 
L 581 0 
L 581 4863 
L 1159 4863 
L 1159 2956 
Q 1366 3272 1645 3428 
Q 1925 3584 2291 3584 
Q 2894 3584 3203 3211 
Q 3513 2838 3513 2113 
z
" transform="scale(0.015625)"/>
      <path id="DejaVuSans-69" d="M 603 3500 
L 1178 3500 
L 1178 0 
L 603 0 
L 603 3500 
z
M 603 4863 
L 1178 4863 
L 1178 4134 
L 603 4134 
L 603 4863 
z
" transform="scale(0.015625)"/>
      <path id="DejaVuSans-6e" d="M 3513 2113 
L 3513 0 
L 2938 0 
L 2938 2094 
Q 2938 2591 2744 2837 
Q 2550 3084 2163 3084 
Q 1697 3084 1428 2787 
Q 1159 2491 1159 1978 
L 1159 0 
L 581 0 
L 581 3500 
L 1159 3500 
L 1159 2956 
Q 1366 3272 1645 3428 
Q 1925 3584 2291 3584 
Q 2894 3584 3203 3211 
Q 3513 2838 3513 2113 
z
" transform="scale(0.015625)"/>
      <path id="DejaVuSans-2c" d="M 750 794 
L 1409 794 
L 1409 256 
L 897 -744 
L 494 -744 
L 750 256 
L 750 794 
z
" transform="scale(0.015625)"/>
      <path id="DejaVuSans-70" d="M 1159 525 
L 1159 -1331 
L 581 -1331 
L 581 3500 
L 1159 3500 
L 1159 2969 
Q 1341 3281 1617 3432 
Q 1894 3584 2278 3584 
Q 2916 3584 3314 3078 
Q 3713 2572 3713 1747 
Q 3713 922 3314 415 
Q 2916 -91 2278 -91 
Q 1894 -91 1617 61 
Q 1341 213 1159 525 
z
M 3116 1747 
Q 3116 2381 2855 2742 
Q 2594 3103 2138 3103 
Q 1681 3103 1420 2742 
Q 1159 2381 1159 1747 
Q 1159 1113 1420 752 
Q 1681 391 2138 391 
Q 2594 391 2855 752 
Q 3116 1113 3116 1747 
z
" transform="scale(0.015625)"/>
      <path id="DejaVuSans-53" d="M 3425 4513 
L 3425 3897 
Q 3066 4069 2747 4153 
Q 2428 4238 2131 4238 
Q 1616 4238 1336 4038 
Q 1056 3838 1056 3469 
Q 1056 3159 1242 3001 
Q 1428 2844 1947 2747 
L 2328 2669 
Q 3034 2534 3370 2195 
Q 3706 1856 3706 1288 
Q 3706 609 3251 259 
Q 2797 -91 1919 -91 
Q 1588 -91 1214 -16 
Q 841 59 441 206 
L 441 856 
Q 825 641 1194 531 
Q 1563 422 1919 422 
Q 2459 422 2753 634 
Q 3047 847 3047 1241 
Q 3047 1584 2836 1778 
Q 2625 1972 2144 2069 
L 1759 2144 
Q 1053 2284 737 2584 
Q 422 2884 422 3419 
Q 422 4038 858 4394 
Q 1294 4750 2059 4750 
Q 2388 4750 2728 4690 
Q 3069 4631 3425 4513 
z
" transform="scale(0.015625)"/>
      <path id="DejaVuSans-b9" d="M 488 2431 
L 1125 2431 
L 1125 4341 
L 428 4213 
L 428 4575 
L 1147 4697 
L 1575 4697 
L 1575 2431 
L 2216 2431 
L 2216 2088 
L 488 2088 
L 488 2431 
z
" transform="scale(0.015625)"/>
      <path id="DejaVuSans-2077" d="M 338 4697 
L 2266 4697 
L 2266 4547 
L 1178 2088 
L 753 2088 
L 1778 4400 
L 338 4400 
L 338 4697 
z
" transform="scale(0.015625)"/>
      <path id="DejaVuSans-6d" d="M 3328 2828 
Q 3544 3216 3844 3400 
Q 4144 3584 4550 3584 
Q 5097 3584 5394 3201 
Q 5691 2819 5691 2113 
L 5691 0 
L 5113 0 
L 5113 2094 
Q 5113 2597 4934 2840 
Q 4756 3084 4391 3084 
Q 3944 3084 3684 2787 
Q 3425 2491 3425 1978 
L 3425 0 
L 2847 0 
L 2847 2094 
Q 2847 2600 2669 2842 
Q 2491 3084 2119 3084 
Q 1678 3084 1418 2786 
Q 1159 2488 1159 1978 
L 1159 0 
L 581 0 
L 581 3500 
L 1159 3500 
L 1159 2956 
Q 1356 3278 1631 3431 
Q 1906 3584 2284 3584 
Q 2666 3584 2933 3390 
Q 3200 3197 3328 2828 
z
" transform="scale(0.015625)"/>
      <path id="DejaVuSans-207b" d="M 428 3359 
L 2950 3359 
L 2950 3063 
L 428 3063 
L 428 3359 
z
" transform="scale(0.015625)"/>
      <path id="DejaVuSans-b3" d="M 1638 3500 
Q 1925 3444 2083 3273 
Q 2241 3103 2241 2847 
Q 2241 2459 1944 2250 
Q 1647 2041 1094 2041 
Q 916 2041 720 2073 
Q 525 2106 306 2169 
L 306 2547 
Q 469 2463 655 2422 
Q 841 2381 1050 2381 
Q 1391 2381 1578 2504 
Q 1766 2628 1766 2847 
Q 1766 3078 1592 3197 
Q 1419 3316 1081 3316 
L 813 3316 
L 813 3653 
L 1106 3653 
Q 1400 3653 1551 3751 
Q 1703 3850 1703 4038 
Q 1703 4219 1547 4314 
Q 1391 4409 1094 4409 
Q 969 4409 809 4381 
Q 650 4353 397 4281 
L 397 4641 
Q 625 4694 825 4722 
Q 1025 4750 1197 4750 
Q 1647 4750 1911 4565 
Q 2175 4381 2175 4072 
Q 2175 3856 2034 3706 
Q 1894 3556 1638 3500 
z
" transform="scale(0.015625)"/>
      <path id="DejaVuSans-41" d="M 2188 4044 
L 1331 1722 
L 3047 1722 
L 2188 4044 
z
M 1831 4666 
L 2547 4666 
L 4325 0 
L 3669 0 
L 3244 1197 
L 1141 1197 
L 716 0 
L 50 0 
L 1831 4666 
z
" transform="scale(0.015625)"/>
      <path id="DejaVuSans-2192" d="M 5050 2147 
L 5050 1866 
L 3822 638 
L 3447 1013 
L 4175 1741 
L 366 1741 
L 366 2272 
L 4175 2272 
L 3447 3000 
L 3822 3375 
L 5050 2147 
z
" transform="scale(0.015625)"/>
      <path id="DejaVuSans-64" d="M 2906 2969 
L 2906 4863 
L 3481 4863 
L 3481 0 
L 2906 0 
L 2906 525 
Q 2725 213 2448 61 
Q 2172 -91 1784 -91 
Q 1150 -91 751 415 
Q 353 922 353 1747 
Q 353 2572 751 3078 
Q 1150 3584 1784 3584 
Q 2172 3584 2448 3432 
Q 2725 3281 2906 2969 
z
M 947 1747 
Q 947 1113 1208 752 
Q 1469 391 1925 391 
Q 2381 391 2643 752 
Q 2906 1113 2906 1747 
Q 2906 2381 2643 2742 
Q 2381 3103 1925 3103 
Q 1469 3103 1208 2742 
Q 947 2381 947 1747 
z
" transform="scale(0.015625)"/>
      <path id="DejaVuSans-3b" d="M 750 3309 
L 1409 3309 
L 1409 2516 
L 750 2516 
L 750 3309 
z
M 750 794 
L 1409 794 
L 1409 256 
L 897 -744 
L 494 -744 
L 750 256 
L 750 794 
z
" transform="scale(0.015625)"/>
      <path id="DejaVuSans-79" d="M 2059 -325 
Q 1816 -950 1584 -1140 
Q 1353 -1331 966 -1331 
L 506 -1331 
L 506 -850 
L 844 -850 
Q 1081 -850 1212 -737 
Q 1344 -625 1503 -206 
L 1606 56 
L 191 3500 
L 800 3500 
L 1894 763 
L 2988 3500 
L 3597 3500 
L 2059 -325 
z
" transform="scale(0.015625)"/>
      <path id="DejaVuSans-27" d="M 1147 4666 
L 1147 2931 
L 616 2931 
L 616 4666 
L 1147 4666 
z
" transform="scale(0.015625)"/>
      <path id="DejaVuSans-77" d="M 269 3500 
L 844 3500 
L 1563 769 
L 2278 3500 
L 2956 3500 
L 3675 769 
L 4391 3500 
L 4966 3500 
L 4050 0 
L 3372 0 
L 2619 2869 
L 1863 0 
L 1184 0 
L 269 3500 
z
" transform="scale(0.015625)"/>
      <path id="DejaVuSans-71" d="M 947 1747 
Q 947 1113 1208 752 
Q 1469 391 1925 391 
Q 2381 391 2643 752 
Q 2906 1113 2906 1747 
Q 2906 2381 2643 2742 
Q 2381 3103 1925 3103 
Q 1469 3103 1208 2742 
Q 947 2381 947 1747 
z
M 2906 525 
Q 2725 213 2448 61 
Q 2172 -91 1784 -91 
Q 1150 -91 751 415 
Q 353 922 353 1747 
Q 353 2572 751 3078 
Q 1150 3584 1784 3584 
Q 2172 3584 2448 3432 
Q 2725 3281 2906 2969 
L 2906 3500 
L 3481 3500 
L 3481 -1331 
L 2906 -1331 
L 2906 525 
z
" transform="scale(0.015625)"/>
     </defs>
     <use xlink:href="#DejaVuSans-45"/>
     <use xlink:href="#DejaVuSans-78" transform="translate(63.183594 0)"/>
     <use xlink:href="#DejaVuSans-61" transform="translate(122.363281 0)"/>
     <use xlink:href="#DejaVuSans-63" transform="translate(183.642578 0)"/>
     <use xlink:href="#DejaVuSans-74" transform="translate(238.623047 0)"/>
     <use xlink:href="#DejaVuSans-20" transform="translate(277.832031 0)"/>
     <use xlink:href="#DejaVuSans-73" transform="translate(309.619141 0)"/>
     <use xlink:href="#DejaVuSans-75" transform="translate(361.71875 0)"/>
     <use xlink:href="#DejaVuSans-72" transform="translate(425.097656 0)"/>
     <use xlink:href="#DejaVuSans-66" transform="translate(466.210938 0)"/>
     <use xlink:href="#DejaVuSans-61" transform="translate(501.416016 0)"/>
     <use xlink:href="#DejaVuSans-63" transform="translate(562.695312 0)"/>
     <use xlink:href="#DejaVuSans-65" transform="translate(617.675781 0)"/>
     <use xlink:href="#DejaVuSans-2d" transform="translate(679.199219 0)"/>
     <use xlink:href="#DejaVuSans-63" transform="translate(715.283203 0)"/>
     <use xlink:href="#DejaVuSans-68" transform="translate(770.263672 0)"/>
     <use xlink:href="#DejaVuSans-61" transform="translate(833.642578 0)"/>
     <use xlink:href="#DejaVuSans-72" transform="translate(894.921875 0)"/>
     <use xlink:href="#DejaVuSans-67" transform="translate(934.285156 0)"/>
     <use xlink:href="#DejaVuSans-65" transform="translate(997.761719 0)"/>
     <use xlink:href="#DejaVuSans-20" transform="translate(1059.285156 0)"/>
     <use xlink:href="#DejaVuSans-73" transform="translate(1091.072266 0)"/>
     <use xlink:href="#DejaVuSans-6f" transform="translate(1143.171875 0)"/>
     <use xlink:href="#DejaVuSans-6c" transform="translate(1204.353516 0)"/>
     <use xlink:href="#DejaVuSans-75" transform="translate(1232.136719 0)"/>
     <use xlink:href="#DejaVuSans-74" transform="translate(1295.515625 0)"/>
     <use xlink:href="#DejaVuSans-69" transform="translate(1334.724609 0)"/>
     <use xlink:href="#DejaVuSans-6f" transform="translate(1362.507812 0)"/>
     <use xlink:href="#DejaVuSans-6e" transform="translate(1423.689453 0)"/>
     <use xlink:href="#DejaVuSans-2c" transform="translate(1487.068359 0)"/>
     <use xlink:href="#DejaVuSans-20" transform="translate(1518.855469 0)"/>
     <use xlink:href="#DejaVuSans-70" transform="translate(1550.642578 0)"/>
     <use xlink:href="#DejaVuSans-2d" transform="translate(1614.119141 0)"/>
     <use xlink:href="#DejaVuSans-53" transform="translate(1650.203125 0)"/>
     <use xlink:href="#DejaVuSans-69" transform="translate(1713.679688 0)"/>
     <use xlink:href="#DejaVuSans-20" transform="translate(1741.462891 0)"/>
     <use xlink:href="#DejaVuSans-31" transform="translate(1773.25 0)"/>
     <use xlink:href="#DejaVuSans-30" transform="translate(1836.873047 0)"/>
     <use xlink:href="#DejaVuSans-b9" transform="translate(1900.496094 0)"/>
     <use xlink:href="#DejaVuSans-2077" transform="translate(1940.583984 0)"/>
     <use xlink:href="#DejaVuSans-20" transform="translate(1980.671875 0)"/>
     <use xlink:href="#DejaVuSans-63" transform="translate(2012.458984 0)"/>
     <use xlink:href="#DejaVuSans-6d" transform="translate(2067.439453 0)"/>
     <use xlink:href="#DejaVuSans-207b" transform="translate(2164.851562 0)"/>
     <use xlink:href="#DejaVuSans-b3" transform="translate(2217.634766 0)"/>
     <use xlink:href="#DejaVuSans-2e" transform="translate(2257.722656 0)"/>
     <use xlink:href="#DejaVuSans-20" transform="translate(2289.509766 0)"/>
     <use xlink:href="#DejaVuSans-41" transform="translate(2321.296875 0)"/>
     <use xlink:href="#DejaVuSans-63" transform="translate(2387.955078 0)"/>
     <use xlink:href="#DejaVuSans-63" transform="translate(2442.935547 0)"/>
     <use xlink:href="#DejaVuSans-75" transform="translate(2497.916016 0)"/>
     <use xlink:href="#DejaVuSans-6d" transform="translate(2561.294922 0)"/>
     <use xlink:href="#DejaVuSans-75" transform="translate(2658.707031 0)"/>
     <use xlink:href="#DejaVuSans-6c" transform="translate(2722.085938 0)"/>
     <use xlink:href="#DejaVuSans-61" transform="translate(2749.869141 0)"/>
     <use xlink:href="#DejaVuSans-74" transform="translate(2811.148438 0)"/>
     <use xlink:href="#DejaVuSans-69" transform="translate(2850.357422 0)"/>
     <use xlink:href="#DejaVuSans-6f" transform="translate(2878.140625 0)"/>
     <use xlink:href="#DejaVuSans-6e" transform="translate(2939.322266 0)"/>
     <use xlink:href="#DejaVuSans-20" transform="translate(3002.701172 0)"/>
     <use xlink:href="#DejaVuSans-2192" transform="translate(3034.488281 0)"/>
     <use xlink:href="#DejaVuSans-20" transform="translate(3118.277344 0)"/>
     <use xlink:href="#DejaVuSans-64" transform="translate(3150.064453 0)"/>
     <use xlink:href="#DejaVuSans-65" transform="translate(3213.541016 0)"/>
     <use xlink:href="#DejaVuSans-70" transform="translate(3275.064453 0)"/>
     <use xlink:href="#DejaVuSans-6c" transform="translate(3338.541016 0)"/>
     <use xlink:href="#DejaVuSans-65" transform="translate(3366.324219 0)"/>
     <use xlink:href="#DejaVuSans-74" transform="translate(3427.847656 0)"/>
     <use xlink:href="#DejaVuSans-69" transform="translate(3467.056641 0)"/>
     <use xlink:href="#DejaVuSans-6f" transform="translate(3494.839844 0)"/>
     <use xlink:href="#DejaVuSans-6e" transform="translate(3556.021484 0)"/>
     <use xlink:href="#DejaVuSans-20" transform="translate(3619.400391 0)"/>
     <use xlink:href="#DejaVuSans-2192" transform="translate(3651.1875 0)"/>
     <use xlink:href="#DejaVuSans-20" transform="translate(3734.976562 0)"/>
     <use xlink:href="#DejaVuSans-69" transform="translate(3766.763672 0)"/>
     <use xlink:href="#DejaVuSans-6e" transform="translate(3794.546875 0)"/>
     <use xlink:href="#DejaVuSans-76" transform="translate(3857.925781 0)"/>
     <use xlink:href="#DejaVuSans-65" transform="translate(3917.105469 0)"/>
     <use xlink:href="#DejaVuSans-72" transform="translate(3978.628906 0)"/>
     <use xlink:href="#DejaVuSans-73" transform="translate(4019.742188 0)"/>
     <use xlink:href="#DejaVuSans-69" transform="translate(4071.841797 0)"/>
     <use xlink:href="#DejaVuSans-6f" transform="translate(4099.625 0)"/>
     <use xlink:href="#DejaVuSans-6e" transform="translate(4160.806641 0)"/>
     <use xlink:href="#DejaVuSans-3b" transform="translate(4224.185547 0)"/>
     <use xlink:href="#DejaVuSans-20" transform="translate(4257.876953 0)"/>
     <use xlink:href="#DejaVuSans-6d" transform="translate(4289.664062 0)"/>
     <use xlink:href="#DejaVuSans-69" transform="translate(4387.076172 0)"/>
     <use xlink:href="#DejaVuSans-6e" transform="translate(4414.859375 0)"/>
     <use xlink:href="#DejaVuSans-6f" transform="translate(4478.238281 0)"/>
     <use xlink:href="#DejaVuSans-72" transform="translate(4539.419922 0)"/>
     <use xlink:href="#DejaVuSans-69" transform="translate(4580.533203 0)"/>
     <use xlink:href="#DejaVuSans-74" transform="translate(4608.316406 0)"/>
     <use xlink:href="#DejaVuSans-79" transform="translate(4647.525391 0)"/>
     <use xlink:href="#DejaVuSans-20" transform="translate(4706.705078 0)"/>
     <use xlink:href="#DejaVuSans-63" transform="translate(4738.492188 0)"/>
     <use xlink:href="#DejaVuSans-61" transform="translate(4793.472656 0)"/>
     <use xlink:href="#DejaVuSans-72" transform="translate(4854.751953 0)"/>
     <use xlink:href="#DejaVuSans-72" transform="translate(4894.115234 0)"/>
     <use xlink:href="#DejaVuSans-69" transform="translate(4935.228516 0)"/>
     <use xlink:href="#DejaVuSans-65" transform="translate(4963.011719 0)"/>
     <use xlink:href="#DejaVuSans-72" transform="translate(5024.535156 0)"/>
     <use xlink:href="#DejaVuSans-73" transform="translate(5065.648438 0)"/>
     <use xlink:href="#DejaVuSans-20" transform="translate(5117.748047 0)"/>
     <use xlink:href="#DejaVuSans-63" transform="translate(5149.535156 0)"/>
     <use xlink:href="#DejaVuSans-61" transform="translate(5204.515625 0)"/>
     <use xlink:href="#DejaVuSans-6e" transform="translate(5265.794922 0)"/>
     <use xlink:href="#DejaVuSans-27" transform="translate(5329.173828 0)"/>
     <use xlink:href="#DejaVuSans-74" transform="translate(5356.664062 0)"/>
     <use xlink:href="#DejaVuSans-20" transform="translate(5395.873047 0)"/>
     <use xlink:href="#DejaVuSans-66" transform="translate(5427.660156 0)"/>
     <use xlink:href="#DejaVuSans-6f" transform="translate(5462.865234 0)"/>
     <use xlink:href="#DejaVuSans-6c" transform="translate(5524.046875 0)"/>
     <use xlink:href="#DejaVuSans-6c" transform="translate(5551.830078 0)"/>
     <use xlink:href="#DejaVuSans-6f" transform="translate(5579.613281 0)"/>
     <use xlink:href="#DejaVuSans-77" transform="translate(5640.794922 0)"/>
     <use xlink:href="#DejaVuSans-20" transform="translate(5722.582031 0)"/>
     <use xlink:href="#DejaVuSans-61" transform="translate(5754.369141 0)"/>
     <use xlink:href="#DejaVuSans-74" transform="translate(5815.648438 0)"/>
     <use xlink:href="#DejaVuSans-20" transform="translate(5854.857422 0)"/>
     <use xlink:href="#DejaVuSans-68" transform="translate(5886.644531 0)"/>
     <use xlink:href="#DejaVuSans-69" transform="translate(5950.023438 0)"/>
     <use xlink:href="#DejaVuSans-67" transform="translate(5977.806641 0)"/>
     <use xlink:href="#DejaVuSans-68" transform="translate(6041.283203 0)"/>
     <use xlink:href="#DejaVuSans-20" transform="translate(6104.662109 0)"/>
     <use xlink:href="#DejaVuSans-66" transform="translate(6136.449219 0)"/>
     <use xlink:href="#DejaVuSans-72" transform="translate(6171.654297 0)"/>
     <use xlink:href="#DejaVuSans-65" transform="translate(6210.517578 0)"/>
     <use xlink:href="#DejaVuSans-71" transform="translate(6272.041016 0)"/>
     <use xlink:href="#DejaVuSans-75" transform="translate(6335.517578 0)"/>
     <use xlink:href="#DejaVuSans-65" transform="translate(6398.896484 0)"/>
     <use xlink:href="#DejaVuSans-6e" transform="translate(6460.419922 0)"/>
     <use xlink:href="#DejaVuSans-63" transform="translate(6523.798828 0)"/>
     <use xlink:href="#DejaVuSans-79" transform="translate(6578.779297 0)"/>
     <use xlink:href="#DejaVuSans-2e" transform="translate(6623.708984 0)"/>
    </g>
   </g>
   <g id="text_17">
    <!-- MOS capacitor C–V -->
    <g style="fill: #e8ecf1" transform="translate(55.966953 27.877969) scale(0.13 -0.13)">
     <defs>
      <path id="DejaVuSans-Bold-4d" d="M 588 4666 
L 2119 4666 
L 3181 2169 
L 4250 4666 
L 5778 4666 
L 5778 0 
L 4641 0 
L 4641 3413 
L 3566 897 
L 2803 897 
L 1728 3413 
L 1728 0 
L 588 0 
L 588 4666 
z
" transform="scale(0.015625)"/>
      <path id="DejaVuSans-Bold-4f" d="M 2719 3878 
Q 2169 3878 1866 3472 
Q 1563 3066 1563 2328 
Q 1563 1594 1866 1187 
Q 2169 781 2719 781 
Q 3272 781 3575 1187 
Q 3878 1594 3878 2328 
Q 3878 3066 3575 3472 
Q 3272 3878 2719 3878 
z
M 2719 4750 
Q 3844 4750 4481 4106 
Q 5119 3463 5119 2328 
Q 5119 1197 4481 553 
Q 3844 -91 2719 -91 
Q 1597 -91 958 553 
Q 319 1197 319 2328 
Q 319 3463 958 4106 
Q 1597 4750 2719 4750 
z
" transform="scale(0.015625)"/>
      <path id="DejaVuSans-Bold-53" d="M 3834 4519 
L 3834 3531 
Q 3450 3703 3084 3790 
Q 2719 3878 2394 3878 
Q 1963 3878 1756 3759 
Q 1550 3641 1550 3391 
Q 1550 3203 1689 3098 
Q 1828 2994 2194 2919 
L 2706 2816 
Q 3484 2659 3812 2340 
Q 4141 2022 4141 1434 
Q 4141 663 3683 286 
Q 3225 -91 2284 -91 
Q 1841 -91 1394 -6 
Q 947 78 500 244 
L 500 1259 
Q 947 1022 1364 901 
Q 1781 781 2169 781 
Q 2563 781 2772 912 
Q 2981 1044 2981 1288 
Q 2981 1506 2839 1625 
Q 2697 1744 2272 1838 
L 1806 1941 
Q 1106 2091 782 2419 
Q 459 2747 459 3303 
Q 459 4000 909 4375 
Q 1359 4750 2203 4750 
Q 2588 4750 2994 4692 
Q 3400 4634 3834 4519 
z
" transform="scale(0.015625)"/>
      <path id="DejaVuSans-Bold-20" transform="scale(0.015625)"/>
      <path id="DejaVuSans-Bold-63" d="M 3366 3391 
L 3366 2478 
Q 3138 2634 2908 2709 
Q 2678 2784 2431 2784 
Q 1963 2784 1702 2511 
Q 1441 2238 1441 1747 
Q 1441 1256 1702 982 
Q 1963 709 2431 709 
Q 2694 709 2930 787 
Q 3166 866 3366 1019 
L 3366 103 
Q 3103 6 2833 -42 
Q 2563 -91 2291 -91 
Q 1344 -91 809 395 
Q 275 881 275 1747 
Q 275 2613 809 3098 
Q 1344 3584 2291 3584 
Q 2566 3584 2833 3536 
Q 3100 3488 3366 3391 
z
" transform="scale(0.015625)"/>
      <path id="DejaVuSans-Bold-61" d="M 2106 1575 
Q 1756 1575 1579 1456 
Q 1403 1338 1403 1106 
Q 1403 894 1545 773 
Q 1688 653 1941 653 
Q 2256 653 2472 879 
Q 2688 1106 2688 1447 
L 2688 1575 
L 2106 1575 
z
M 3816 1997 
L 3816 0 
L 2688 0 
L 2688 519 
Q 2463 200 2181 54 
Q 1900 -91 1497 -91 
Q 953 -91 614 226 
Q 275 544 275 1050 
Q 275 1666 698 1953 
Q 1122 2241 2028 2241 
L 2688 2241 
L 2688 2328 
Q 2688 2594 2478 2717 
Q 2269 2841 1825 2841 
Q 1466 2841 1156 2769 
Q 847 2697 581 2553 
L 581 3406 
Q 941 3494 1303 3539 
Q 1666 3584 2028 3584 
Q 2975 3584 3395 3211 
Q 3816 2838 3816 1997 
z
" transform="scale(0.015625)"/>
      <path id="DejaVuSans-Bold-70" d="M 1656 506 
L 1656 -1331 
L 538 -1331 
L 538 3500 
L 1656 3500 
L 1656 2988 
Q 1888 3294 2169 3439 
Q 2450 3584 2816 3584 
Q 3463 3584 3878 3070 
Q 4294 2556 4294 1747 
Q 4294 938 3878 423 
Q 3463 -91 2816 -91 
Q 2450 -91 2169 54 
Q 1888 200 1656 506 
z
M 2400 2772 
Q 2041 2772 1848 2508 
Q 1656 2244 1656 1747 
Q 1656 1250 1848 986 
Q 2041 722 2400 722 
Q 2759 722 2948 984 
Q 3138 1247 3138 1747 
Q 3138 2247 2948 2509 
Q 2759 2772 2400 2772 
z
" transform="scale(0.015625)"/>
      <path id="DejaVuSans-Bold-69" d="M 538 3500 
L 1656 3500 
L 1656 0 
L 538 0 
L 538 3500 
z
M 538 4863 
L 1656 4863 
L 1656 3950 
L 538 3950 
L 538 4863 
z
" transform="scale(0.015625)"/>
      <path id="DejaVuSans-Bold-74" d="M 1759 4494 
L 1759 3500 
L 2913 3500 
L 2913 2700 
L 1759 2700 
L 1759 1216 
Q 1759 972 1856 886 
Q 1953 800 2241 800 
L 2816 800 
L 2816 0 
L 1856 0 
Q 1194 0 917 276 
Q 641 553 641 1216 
L 641 2700 
L 84 2700 
L 84 3500 
L 641 3500 
L 641 4494 
L 1759 4494 
z
" transform="scale(0.015625)"/>
      <path id="DejaVuSans-Bold-6f" d="M 2203 2784 
Q 1831 2784 1636 2517 
Q 1441 2250 1441 1747 
Q 1441 1244 1636 976 
Q 1831 709 2203 709 
Q 2569 709 2762 976 
Q 2956 1244 2956 1747 
Q 2956 2250 2762 2517 
Q 2569 2784 2203 2784 
z
M 2203 3584 
Q 3106 3584 3614 3096 
Q 4122 2609 4122 1747 
Q 4122 884 3614 396 
Q 3106 -91 2203 -91 
Q 1297 -91 786 396 
Q 275 884 275 1747 
Q 275 2609 786 3096 
Q 1297 3584 2203 3584 
z
" transform="scale(0.015625)"/>
      <path id="DejaVuSans-Bold-72" d="M 3138 2547 
Q 2991 2616 2845 2648 
Q 2700 2681 2553 2681 
Q 2122 2681 1889 2404 
Q 1656 2128 1656 1613 
L 1656 0 
L 538 0 
L 538 3500 
L 1656 3500 
L 1656 2925 
Q 1872 3269 2151 3426 
Q 2431 3584 2822 3584 
Q 2878 3584 2943 3579 
Q 3009 3575 3134 3559 
L 3138 2547 
z
" transform="scale(0.015625)"/>
      <path id="DejaVuSans-Bold-43" d="M 4288 256 
Q 3956 84 3597 -3 
Q 3238 -91 2847 -91 
Q 1681 -91 1000 561 
Q 319 1213 319 2328 
Q 319 3447 1000 4098 
Q 1681 4750 2847 4750 
Q 3238 4750 3597 4662 
Q 3956 4575 4288 4403 
L 4288 3438 
Q 3953 3666 3628 3772 
Q 3303 3878 2944 3878 
Q 2300 3878 1931 3465 
Q 1563 3053 1563 2328 
Q 1563 1606 1931 1193 
Q 2300 781 2944 781 
Q 3303 781 3628 887 
Q 3953 994 4288 1222 
L 4288 256 
z
" transform="scale(0.015625)"/>
      <path id="DejaVuSans-Bold-2013" d="M 344 2156 
L 2856 2156 
L 2856 1350 
L 344 1350 
L 344 2156 
z
" transform="scale(0.015625)"/>
      <path id="DejaVuSans-Bold-56" d="M 31 4666 
L 1241 4666 
L 2478 1222 
L 3713 4666 
L 4922 4666 
L 3194 0 
L 1759 0 
L 31 4666 
z
" transform="scale(0.015625)"/>
     </defs>
     <use xlink:href="#DejaVuSans-Bold-4d"/>
     <use xlink:href="#DejaVuSans-Bold-4f" transform="translate(99.511719 0)"/>
     <use xlink:href="#DejaVuSans-Bold-53" transform="translate(184.521484 0)"/>
     <use xlink:href="#DejaVuSans-Bold-20" transform="translate(256.542969 0)"/>
     <use xlink:href="#DejaVuSans-Bold-63" transform="translate(291.357422 0)"/>
     <use xlink:href="#DejaVuSans-Bold-61" transform="translate(350.634766 0)"/>
     <use xlink:href="#DejaVuSans-Bold-70" transform="translate(418.115234 0)"/>
     <use xlink:href="#DejaVuSans-Bold-61" transform="translate(489.697266 0)"/>
     <use xlink:href="#DejaVuSans-Bold-63" transform="translate(557.177734 0)"/>
     <use xlink:href="#DejaVuSans-Bold-69" transform="translate(616.455078 0)"/>
     <use xlink:href="#DejaVuSans-Bold-74" transform="translate(650.732422 0)"/>
     <use xlink:href="#DejaVuSans-Bold-6f" transform="translate(698.535156 0)"/>
     <use xlink:href="#DejaVuSans-Bold-72" transform="translate(767.236328 0)"/>
     <use xlink:href="#DejaVuSans-Bold-20" transform="translate(816.552734 0)"/>
     <use xlink:href="#DejaVuSans-Bold-43" transform="translate(851.367188 0)"/>
     <use xlink:href="#DejaVuSans-Bold-2013" transform="translate(924.755859 0)"/>
     <use xlink:href="#DejaVuSans-Bold-56" transform="translate(974.755859 0)"/>
    </g>
   </g>
   <g id="legend_1">
    <g id="line2d_33">
     <path d="M 455.993125 168.370923 
L 464.493125 168.370923 
L 472.993125 168.370923 
" style="fill: none; stroke: #3987e5; stroke-width: 2; stroke-linecap: round"/>
    </g>
    <g id="text_18">
     <!-- t_ox = 10 nm, low frequency -->
     <g style="fill: #aab3c0" transform="translate(479.793125 171.345923) scale(0.085 -0.085)">
      <defs>
       <path id="DejaVuSans-3d" d="M 678 2906 
L 4684 2906 
L 4684 2381 
L 678 2381 
L 678 2906 
z
M 678 1631 
L 4684 1631 
L 4684 1100 
L 678 1100 
L 678 1631 
z
" transform="scale(0.015625)"/>
      </defs>
      <use xlink:href="#DejaVuSans-74"/>
      <use xlink:href="#DejaVuSans-5f" transform="translate(39.208984 0)"/>
      <use xlink:href="#DejaVuSans-6f" transform="translate(89.208984 0)"/>
      <use xlink:href="#DejaVuSans-78" transform="translate(147.265625 0)"/>
      <use xlink:href="#DejaVuSans-20" transform="translate(206.445312 0)"/>
      <use xlink:href="#DejaVuSans-3d" transform="translate(238.232422 0)"/>
      <use xlink:href="#DejaVuSans-20" transform="translate(322.021484 0)"/>
      <use xlink:href="#DejaVuSans-31" transform="translate(353.808594 0)"/>
      <use xlink:href="#DejaVuSans-30" transform="translate(417.431641 0)"/>
      <use xlink:href="#DejaVuSans-20" transform="translate(481.054688 0)"/>
      <use xlink:href="#DejaVuSans-6e" transform="translate(512.841797 0)"/>
      <use xlink:href="#DejaVuSans-6d" transform="translate(576.220703 0)"/>
      <use xlink:href="#DejaVuSans-2c" transform="translate(673.632812 0)"/>
      <use xlink:href="#DejaVuSans-20" transform="translate(705.419922 0)"/>
      <use xlink:href="#DejaVuSans-6c" transform="translate(737.207031 0)"/>
      <use xlink:href="#DejaVuSans-6f" transform="translate(764.990234 0)"/>
      <use xlink:href="#DejaVuSans-77" transform="translate(826.171875 0)"/>
      <use xlink:href="#DejaVuSans-20" transform="translate(907.958984 0)"/>
      <use xlink:href="#DejaVuSans-66" transform="translate(939.746094 0)"/>
      <use xlink:href="#DejaVuSans-72" transform="translate(974.951172 0)"/>
      <use xlink:href="#DejaVuSans-65" transform="translate(1013.814453 0)"/>
      <use xlink:href="#DejaVuSans-71" transform="translate(1075.337891 0)"/>
      <use xlink:href="#DejaVuSans-75" transform="translate(1138.814453 0)"/>
      <use xlink:href="#DejaVuSans-65" transform="translate(1202.193359 0)"/>
      <use xlink:href="#DejaVuSans-6e" transform="translate(1263.716797 0)"/>
      <use xlink:href="#DejaVuSans-63" transform="translate(1327.095703 0)"/>
      <use xlink:href="#DejaVuSans-79" transform="translate(1382.076172 0)"/>
     </g>
    </g>
    <g id="line2d_34">
     <path d="M 455.993125 181.083736 
L 464.493125 181.083736 
L 472.993125 181.083736 
" style="fill: none; stroke-dasharray: 7.4,3.2; stroke-dashoffset: 0; stroke: #3987e5; stroke-width: 2"/>
    </g>
    <g id="text_19">
     <!-- t_ox = 10 nm, high frequency -->
     <g style="fill: #aab3c0" transform="translate(479.793125 184.058736) scale(0.085 -0.085)">
      <use xlink:href="#DejaVuSans-74"/>
      <use xlink:href="#DejaVuSans-5f" transform="translate(39.208984 0)"/>
      <use xlink:href="#DejaVuSans-6f" transform="translate(89.208984 0)"/>
      <use xlink:href="#DejaVuSans-78" transform="translate(147.265625 0)"/>
      <use xlink:href="#DejaVuSans-20" transform="translate(206.445312 0)"/>
      <use xlink:href="#DejaVuSans-3d" transform="translate(238.232422 0)"/>
      <use xlink:href="#DejaVuSans-20" transform="translate(322.021484 0)"/>
      <use xlink:href="#DejaVuSans-31" transform="translate(353.808594 0)"/>
      <use xlink:href="#DejaVuSans-30" transform="translate(417.431641 0)"/>
      <use xlink:href="#DejaVuSans-20" transform="translate(481.054688 0)"/>
      <use xlink:href="#DejaVuSans-6e" transform="translate(512.841797 0)"/>
      <use xlink:href="#DejaVuSans-6d" transform="translate(576.220703 0)"/>
      <use xlink:href="#DejaVuSans-2c" transform="translate(673.632812 0)"/>
      <use xlink:href="#DejaVuSans-20" transform="translate(705.419922 0)"/>
      <use xlink:href="#DejaVuSans-68" transform="translate(737.207031 0)"/>
      <use xlink:href="#DejaVuSans-69" transform="translate(800.585938 0)"/>
      <use xlink:href="#DejaVuSans-67" transform="translate(828.369141 0)"/>
      <use xlink:href="#DejaVuSans-68" transform="translate(891.845703 0)"/>
      <use xlink:href="#DejaVuSans-20" transform="translate(955.224609 0)"/>
      <use xlink:href="#DejaVuSans-66" transform="translate(987.011719 0)"/>
      <use xlink:href="#DejaVuSans-72" transform="translate(1022.216797 0)"/>
      <use xlink:href="#DejaVuSans-65" transform="translate(1061.080078 0)"/>
      <use xlink:href="#DejaVuSans-71" transform="translate(1122.603516 0)"/>
      <use xlink:href="#DejaVuSans-75" transform="translate(1186.080078 0)"/>
      <use xlink:href="#DejaVuSans-65" transform="translate(1249.458984 0)"/>
      <use xlink:href="#DejaVuSans-6e" transform="translate(1310.982422 0)"/>
      <use xlink:href="#DejaVuSans-63" transform="translate(1374.361328 0)"/>
      <use xlink:href="#DejaVuSans-79" transform="translate(1429.341797 0)"/>
     </g>
    </g>
    <g id="line2d_35">
     <path d="M 455.993125 193.796548 
L 464.493125 193.796548 
L 472.993125 193.796548 
" style="fill: none; stroke: #d95926; stroke-width: 2; stroke-linecap: round"/>
    </g>
    <g id="text_20">
     <!-- t_ox = 5 nm, low frequency -->
     <g style="fill: #aab3c0" transform="translate(479.793125 196.771548) scale(0.085 -0.085)">
      <defs>
       <path id="DejaVuSans-35" d="M 691 4666 
L 3169 4666 
L 3169 4134 
L 1269 4134 
L 1269 2991 
Q 1406 3038 1543 3061 
Q 1681 3084 1819 3084 
Q 2600 3084 3056 2656 
Q 3513 2228 3513 1497 
Q 3513 744 3044 326 
Q 2575 -91 1722 -91 
Q 1428 -91 1123 -41 
Q 819 9 494 109 
L 494 744 
Q 775 591 1075 516 
Q 1375 441 1709 441 
Q 2250 441 2565 725 
Q 2881 1009 2881 1497 
Q 2881 1984 2565 2268 
Q 2250 2553 1709 2553 
Q 1456 2553 1204 2497 
Q 953 2441 691 2322 
L 691 4666 
z
" transform="scale(0.015625)"/>
      </defs>
      <use xlink:href="#DejaVuSans-74"/>
      <use xlink:href="#DejaVuSans-5f" transform="translate(39.208984 0)"/>
      <use xlink:href="#DejaVuSans-6f" transform="translate(89.208984 0)"/>
      <use xlink:href="#DejaVuSans-78" transform="translate(147.265625 0)"/>
      <use xlink:href="#DejaVuSans-20" transform="translate(206.445312 0)"/>
      <use xlink:href="#DejaVuSans-3d" transform="translate(238.232422 0)"/>
      <use xlink:href="#DejaVuSans-20" transform="translate(322.021484 0)"/>
      <use xlink:href="#DejaVuSans-35" transform="translate(353.808594 0)"/>
      <use xlink:href="#DejaVuSans-20" transform="translate(417.431641 0)"/>
      <use xlink:href="#DejaVuSans-6e" transform="translate(449.21875 0)"/>
      <use xlink:href="#DejaVuSans-6d" transform="translate(512.597656 0)"/>
      <use xlink:href="#DejaVuSans-2c" transform="translate(610.009766 0)"/>
      <use xlink:href="#DejaVuSans-20" transform="translate(641.796875 0)"/>
      <use xlink:href="#DejaVuSans-6c" transform="translate(673.583984 0)"/>
      <use xlink:href="#DejaVuSans-6f" transform="translate(701.367188 0)"/>
      <use xlink:href="#DejaVuSans-77" transform="translate(762.548828 0)"/>
      <use xlink:href="#DejaVuSans-20" transform="translate(844.335938 0)"/>
      <use xlink:href="#DejaVuSans-66" transform="translate(876.123047 0)"/>
      <use xlink:href="#DejaVuSans-72" transform="translate(911.328125 0)"/>
      <use xlink:href="#DejaVuSans-65" transform="translate(950.191406 0)"/>
      <use xlink:href="#DejaVuSans-71" transform="translate(1011.714844 0)"/>
      <use xlink:href="#DejaVuSans-75" transform="translate(1075.191406 0)"/>
      <use xlink:href="#DejaVuSans-65" transform="translate(1138.570312 0)"/>
      <use xlink:href="#DejaVuSans-6e" transform="translate(1200.09375 0)"/>
      <use xlink:href="#DejaVuSans-63" transform="translate(1263.472656 0)"/>
      <use xlink:href="#DejaVuSans-79" transform="translate(1318.453125 0)"/>
     </g>
    </g>
    <g id="line2d_36">
     <path d="M 455.993125 206.509361 
L 464.493125 206.509361 
L 472.993125 206.509361 
" style="fill: none; stroke-dasharray: 7.4,3.2; stroke-dashoffset: 0; stroke: #d95926; stroke-width: 2"/>
    </g>
    <g id="text_21">
     <!-- t_ox = 5 nm, high frequency -->
     <g style="fill: #aab3c0" transform="translate(479.793125 209.484361) scale(0.085 -0.085)">
      <use xlink:href="#DejaVuSans-74"/>
      <use xlink:href="#DejaVuSans-5f" transform="translate(39.208984 0)"/>
      <use xlink:href="#DejaVuSans-6f" transform="translate(89.208984 0)"/>
      <use xlink:href="#DejaVuSans-78" transform="translate(147.265625 0)"/>
      <use xlink:href="#DejaVuSans-20" transform="translate(206.445312 0)"/>
      <use xlink:href="#DejaVuSans-3d" transform="translate(238.232422 0)"/>
      <use xlink:href="#DejaVuSans-20" transform="translate(322.021484 0)"/>
      <use xlink:href="#DejaVuSans-35" transform="translate(353.808594 0)"/>
      <use xlink:href="#DejaVuSans-20" transform="translate(417.431641 0)"/>
      <use xlink:href="#DejaVuSans-6e" transform="translate(449.21875 0)"/>
      <use xlink:href="#DejaVuSans-6d" transform="translate(512.597656 0)"/>
      <use xlink:href="#DejaVuSans-2c" transform="translate(610.009766 0)"/>
      <use xlink:href="#DejaVuSans-20" transform="translate(641.796875 0)"/>
      <use xlink:href="#DejaVuSans-68" transform="translate(673.583984 0)"/>
      <use xlink:href="#DejaVuSans-69" transform="translate(736.962891 0)"/>
      <use xlink:href="#DejaVuSans-67" transform="translate(764.746094 0)"/>
      <use xlink:href="#DejaVuSans-68" transform="translate(828.222656 0)"/>
      <use xlink:href="#DejaVuSans-20" transform="translate(891.601562 0)"/>
      <use xlink:href="#DejaVuSans-66" transform="translate(923.388672 0)"/>
      <use xlink:href="#DejaVuSans-72" transform="translate(958.59375 0)"/>
      <use xlink:href="#DejaVuSans-65" transform="translate(997.457031 0)"/>
      <use xlink:href="#DejaVuSans-71" transform="translate(1058.980469 0)"/>
      <use xlink:href="#DejaVuSans-75" transform="translate(1122.457031 0)"/>
      <use xlink:href="#DejaVuSans-65" transform="translate(1185.835938 0)"/>
      <use xlink:href="#DejaVuSans-6e" transform="translate(1247.359375 0)"/>
      <use xlink:href="#DejaVuSans-63" transform="translate(1310.738281 0)"/>
      <use xlink:href="#DejaVuSans-79" transform="translate(1365.71875 0)"/>
     </g>
    </g>
    <g id="line2d_37">
     <path d="M 455.993125 219.222173 
L 464.493125 219.222173 
L 472.993125 219.222173 
" style="fill: none; stroke: #199e70; stroke-width: 2; stroke-linecap: round"/>
    </g>
    <g id="text_22">
     <!-- t_ox = 2 nm, low frequency -->
     <g style="fill: #aab3c0" transform="translate(479.793125 222.197173) scale(0.085 -0.085)">
      <use xlink:href="#DejaVuSans-74"/>
      <use xlink:href="#DejaVuSans-5f" transform="translate(39.208984 0)"/>
      <use xlink:href="#DejaVuSans-6f" transform="translate(89.208984 0)"/>
      <use xlink:href="#DejaVuSans-78" transform="translate(147.265625 0)"/>
      <use xlink:href="#DejaVuSans-20" transform="translate(206.445312 0)"/>
      <use xlink:href="#DejaVuSans-3d" transform="translate(238.232422 0)"/>
      <use xlink:href="#DejaVuSans-20" transform="translate(322.021484 0)"/>
      <use xlink:href="#DejaVuSans-32" transform="translate(353.808594 0)"/>
      <use xlink:href="#DejaVuSans-20" transform="translate(417.431641 0)"/>
      <use xlink:href="#DejaVuSans-6e" transform="translate(449.21875 0)"/>
      <use xlink:href="#DejaVuSans-6d" transform="translate(512.597656 0)"/>
      <use xlink:href="#DejaVuSans-2c" transform="translate(610.009766 0)"/>
      <use xlink:href="#DejaVuSans-20" transform="translate(641.796875 0)"/>
      <use xlink:href="#DejaVuSans-6c" transform="translate(673.583984 0)"/>
      <use xlink:href="#DejaVuSans-6f" transform="translate(701.367188 0)"/>
      <use xlink:href="#DejaVuSans-77" transform="translate(762.548828 0)"/>
      <use xlink:href="#DejaVuSans-20" transform="translate(844.335938 0)"/>
      <use xlink:href="#DejaVuSans-66" transform="translate(876.123047 0)"/>
      <use xlink:href="#DejaVuSans-72" transform="translate(911.328125 0)"/>
      <use xlink:href="#DejaVuSans-65" transform="translate(950.191406 0)"/>
      <use xlink:href="#DejaVuSans-71" transform="translate(1011.714844 0)"/>
      <use xlink:href="#DejaVuSans-75" transform="translate(1075.191406 0)"/>
      <use xlink:href="#DejaVuSans-65" transform="translate(1138.570312 0)"/>
      <use xlink:href="#DejaVuSans-6e" transform="translate(1200.09375 0)"/>
      <use xlink:href="#DejaVuSans-63" transform="translate(1263.472656 0)"/>
      <use xlink:href="#DejaVuSans-79" transform="translate(1318.453125 0)"/>
     </g>
    </g>
    <g id="line2d_38">
     <path d="M 455.993125 231.934986 
L 464.493125 231.934986 
L 472.993125 231.934986 
" style="fill: none; stroke-dasharray: 7.4,3.2; stroke-dashoffset: 0; stroke: #199e70; stroke-width: 2"/>
    </g>
    <g id="text_23">
     <!-- t_ox = 2 nm, high frequency -->
     <g style="fill: #aab3c0" transform="translate(479.793125 234.909986) scale(0.085 -0.085)">
      <use xlink:href="#DejaVuSans-74"/>
      <use xlink:href="#DejaVuSans-5f" transform="translate(39.208984 0)"/>
      <use xlink:href="#DejaVuSans-6f" transform="translate(89.208984 0)"/>
      <use xlink:href="#DejaVuSans-78" transform="translate(147.265625 0)"/>
      <use xlink:href="#DejaVuSans-20" transform="translate(206.445312 0)"/>
      <use xlink:href="#DejaVuSans-3d" transform="translate(238.232422 0)"/>
      <use xlink:href="#DejaVuSans-20" transform="translate(322.021484 0)"/>
      <use xlink:href="#DejaVuSans-32" transform="translate(353.808594 0)"/>
      <use xlink:href="#DejaVuSans-20" transform="translate(417.431641 0)"/>
      <use xlink:href="#DejaVuSans-6e" transform="translate(449.21875 0)"/>
      <use xlink:href="#DejaVuSans-6d" transform="translate(512.597656 0)"/>
      <use xlink:href="#DejaVuSans-2c" transform="translate(610.009766 0)"/>
      <use xlink:href="#DejaVuSans-20" transform="translate(641.796875 0)"/>
      <use xlink:href="#DejaVuSans-68" transform="translate(673.583984 0)"/>
      <use xlink:href="#DejaVuSans-69" transform="translate(736.962891 0)"/>
      <use xlink:href="#DejaVuSans-67" transform="translate(764.746094 0)"/>
      <use xlink:href="#DejaVuSans-68" transform="translate(828.222656 0)"/>
      <use xlink:href="#DejaVuSans-20" transform="translate(891.601562 0)"/>
      <use xlink:href="#DejaVuSans-66" transform="translate(923.388672 0)"/>
      <use xlink:href="#DejaVuSans-72" transform="translate(958.59375 0)"/>
      <use xlink:href="#DejaVuSans-65" transform="translate(997.457031 0)"/>
      <use xlink:href="#DejaVuSans-71" transform="translate(1058.980469 0)"/>
      <use xlink:href="#DejaVuSans-75" transform="translate(1122.457031 0)"/>
      <use xlink:href="#DejaVuSans-65" transform="translate(1185.835938 0)"/>
      <use xlink:href="#DejaVuSans-6e" transform="translate(1247.359375 0)"/>
      <use xlink:href="#DejaVuSans-63" transform="translate(1310.738281 0)"/>
      <use xlink:href="#DejaVuSans-79" transform="translate(1365.71875 0)"/>
     </g>
    </g>
   </g>
  </g>
 </g>
 <defs>
  <clipPath id="p48e287c952">
   <rect x="55.966953" y="51.877969" width="558" height="310.464"/>
  </clipPath>
 </defs>
</svg>
