<svg xmlns="http://www.w3.org/2000/svg" viewBox="0 0 840 420" width="840" height="420" font-family="IBM Plex Sans, Segoe UI, system-ui, sans-serif" role="img" aria-label="Vertical 2DHG diamond trench MOSFET (Waseda, 2024)">
<rect width="840" height="420" rx="14" fill="#10141a"/>
<text x="24" y="36" fill="#e8ecf1" font-size="19" font-weight="600">Vertical 2DHG diamond trench MOSFET (Waseda, 2024)</text>
<text x="24" y="58" fill="#8a94a3" font-size="12.5">Hole gas on the C–H trench sidewall; current flows down to a p⁺ substrate drain.</text>
<rect x="30.0" y="350.0" width="470.0" height="44.0" rx="0" fill="#e8c45c" fill-opacity="1.0"/>
<rect x="30.0" y="300.0" width="470.0" height="50.0" rx="0" fill="#f29fc8" fill-opacity="1.0"/>
<rect x="30.0" y="240.0" width="470.0" height="60.0" rx="0" fill="#e6dcef" fill-opacity="1.0"/>
<rect x="30.0" y="150.0" width="170.0" height="90.0" rx="0" fill="#9ec7f0" fill-opacity="1.0"/>
<rect x="330.0" y="150.0" width="170.0" height="90.0" rx="0" fill="#9ec7f0" fill-opacity="1.0"/>
<rect x="30.0" y="136.0" width="170.0" height="14.0" rx="0" fill="#f29fc8" fill-opacity="1.0"/>
<rect x="330.0" y="136.0" width="170.0" height="14.0" rx="0" fill="#f29fc8" fill-opacity="1.0"/>
<rect x="200.0" y="136.0" width="5.0" height="110.0" rx="0" fill="#ff9ad5" fill-opacity="1.0"/>
<rect x="325.0" y="136.0" width="5.0" height="110.0" rx="0" fill="#ff9ad5" fill-opacity="1.0"/>
<polygon points="205.0,136.0 325.0,136.0 325.0,250.0 205.0,250.0" fill="#8fcfd4" fill-opacity="1.0"/>
<rect x="218.0" y="110.0" width="94.0" height="132.0" rx="0" fill="#e2b650" fill-opacity="1.0"/>
<line x1="202.0" y1="250.0" x2="202.0" y2="300.0" stroke="#e8ecf1" stroke-width="2" stroke-linecap="round" stroke-dasharray="4 4"/>
<line x1="328.0" y1="250.0" x2="328.0" y2="300.0" stroke="#e8ecf1" stroke-width="2" stroke-linecap="round" stroke-dasharray="4 4"/>
<polyline points="115.0,143.0 522.0,143.0 540.0,143.0" fill="none" stroke="#8a94a3" stroke-width="1"/>
<circle cx="115.0" cy="143.0" r="2.6" fill="#e8ecf1" stroke="#10141a" stroke-width="1.5"/>
<text x="548" y="147.0" fill="#e8ecf1" font-size="12.5">p⁺ source contact layer</text>
<polyline points="265.0,176.0 522.0,176.0 540.0,176.0" fill="none" stroke="#8a94a3" stroke-width="1"/>
<circle cx="265.0" cy="176.0" r="2.6" fill="#e8ecf1" stroke="#10141a" stroke-width="1.5"/>
<text x="548" y="180.0" fill="#e8ecf1" font-size="12.5">Trench gate</text>
<polyline points="202.5,191.0 522.0,206.0 540.0,206.0" fill="none" stroke="#8a94a3" stroke-width="1"/>
<circle cx="202.5" cy="191.0" r="2.6" fill="#e8ecf1" stroke="#10141a" stroke-width="1.5"/>
<text x="548" y="210.0" fill="#e8ecf1" font-size="12.5">2D hole gas on trench wall</text>
<polyline points="115.0,195.0 522.0,236.0 540.0,236.0" fill="none" stroke="#8a94a3" stroke-width="1"/>
<circle cx="115.0" cy="195.0" r="2.6" fill="#e8ecf1" stroke="#10141a" stroke-width="1.5"/>
<text x="548" y="240.0" fill="#e8ecf1" font-size="12.5">Nitrogen-doped blocking layer</text>
<polyline points="265.0,244.0 522.0,266.0 540.0,266.0" fill="none" stroke="#8a94a3" stroke-width="1"/>
<circle cx="265.0" cy="244.0" r="2.6" fill="#e8ecf1" stroke="#10141a" stroke-width="1.5"/>
<text x="548" y="270.0" fill="#e8ecf1" font-size="12.5">Al₂O₃ gate insulator</text>
<polyline points="265.0,270.0 522.0,296.0 540.0,296.0" fill="none" stroke="#8a94a3" stroke-width="1"/>
<circle cx="265.0" cy="270.0" r="2.6" fill="#e8ecf1" stroke="#10141a" stroke-width="1.5"/>
<text x="548" y="300.0" fill="#e8ecf1" font-size="12.5">p⁻ drift layer</text>
<polyline points="265.0,325.0 522.0,326.0 540.0,326.0" fill="none" stroke="#8a94a3" stroke-width="1"/>
<circle cx="265.0" cy="325.0" r="2.6" fill="#e8ecf1" stroke="#10141a" stroke-width="1.5"/>
<text x="548" y="330.0" fill="#e8ecf1" font-size="12.5">p⁺ substrate (drain)</text>
<polyline points="265.0,372.0 522.0,372.0 540.0,372.0" fill="none" stroke="#8a94a3" stroke-width="1"/>
<circle cx="265.0" cy="372.0" r="2.6" fill="#e8ecf1" stroke="#10141a" stroke-width="1.5"/>
<text x="548" y="376.0" fill="#e8ecf1" font-size="12.5">Drain metal</text>
<text x="265" y="408" fill="#8a94a3" font-size="11" text-anchor="middle">Oi et al., IEEE EDL 2024: 0.7 A from one device, −1.5 A from two in parallel</text>
</svg>