<svg xmlns="http://www.w3.org/2000/svg" viewBox="0 0 840 420" width="840" height="420" font-family="IBM Plex Sans, Segoe UI, system-ui, sans-serif" role="img" aria-label="Junctionless nanowire transistor (Colinge 2010)">
<rect width="840" height="420" rx="14" fill="#10141a"/>
<text x="24" y="36" fill="#e8ecf1" font-size="19" font-weight="600">Junctionless nanowire transistor (Colinge 2010)</text>
<text x="24" y="58" fill="#8a94a3" font-size="12.5">Source, channel and drain doped the same: the gate simply squeezes the wire until it empties.</text>
<rect x="30.0" y="320.0" width="470.0" height="74.0" rx="0" fill="#4b596d" fill-opacity="1.0"/>
<rect x="30.0" y="300.0" width="470.0" height="20.0" rx="0" fill="#8fcfd4" fill-opacity="1.0"/>
<rect x="60.0" y="250.0" width="410.0" height="30.0" rx="0" fill="#3f7fe0" fill-opacity="1.0"/>
<rect x="200.0" y="232.0" width="130.0" height="66.0" rx="0" fill="#9a80dc" fill-opacity="0.9"/>
<rect x="210.0" y="212.0" width="110.0" height="30.0" rx="0" fill="#e2b650" fill-opacity="1.0"/>
<rect x="210.0" y="288.0" width="110.0" height="12.0" rx="0" fill="#e2b650" fill-opacity="1.0"/>
<polyline points="265.0,227.0 522.0,227.0 540.0,227.0" fill="none" stroke="#8a94a3" stroke-width="1"/>
<circle cx="265.0" cy="227.0" r="2.6" fill="#e8ecf1" stroke="#10141a" stroke-width="1.5"/>
<text x="548" y="231.0" fill="#e8ecf1" font-size="12.5">Gate (wraps the wire)</text>
<polyline points="265.0,265.0 522.0,265.0 540.0,265.0" fill="none" stroke="#8a94a3" stroke-width="1"/>
<circle cx="265.0" cy="265.0" r="2.6" fill="#e8ecf1" stroke="#10141a" stroke-width="1.5"/>
<text x="548" y="269.0" fill="#e8ecf1" font-size="12.5">Uniformly n⁺ silicon nanowire</text>
<polyline points="265.0,265.0 522.0,295.0 540.0,295.0" fill="none" stroke="#8a94a3" stroke-width="1"/>
<circle cx="265.0" cy="265.0" r="2.6" fill="#e8ecf1" stroke="#10141a" stroke-width="1.5"/>
<text x="548" y="299.0" fill="#e8ecf1" font-size="12.5">Gate dielectric</text>
<polyline points="265.0,310.0 522.0,325.0 540.0,325.0" fill="none" stroke="#8a94a3" stroke-width="1"/>
<circle cx="265.0" cy="310.0" r="2.6" fill="#e8ecf1" stroke="#10141a" stroke-width="1.5"/>
<text x="548" y="329.0" fill="#e8ecf1" font-size="12.5">Buried oxide</text>
<polyline points="265.0,357.0 522.0,357.0 540.0,357.0" fill="none" stroke="#8a94a3" stroke-width="1"/>
<circle cx="265.0" cy="357.0" r="2.6" fill="#e8ecf1" stroke="#10141a" stroke-width="1.5"/>
<text x="548" y="361.0" fill="#e8ecf1" font-size="12.5">Substrate</text>
</svg>